<svg width="32" height="32" viewBox="0 0 32 32" fill="none" xmlns="http://www.w3.org/2000/svg">
<rect width="32" height="32" rx="4" fill="#CDE6D9"/>
<path d="M16 16.4167C15.2265 16.4167 14.4846 16.724 13.9376 17.2709C13.3907 17.8179 13.0834 18.5598 13.0834 19.3333C13.0834 20.1069 13.3907 20.8488 13.9376 21.3957C14.4846 21.9427 15.2265 22.25 16 22.25C16.7736 22.25 17.5155 21.9427 18.0624 21.3957C18.6094 20.8488 18.9167 20.1069 18.9167 19.3333C18.9167 18.5598 18.6094 17.8179 18.0624 17.2709C17.5155 16.724 16.7736 16.4167 16 16.4167ZM14.75 19.3333C14.75 19.0018 14.8817 18.6839 15.1162 18.4495C15.3506 18.215 15.6685 18.0833 16 18.0833C16.3316 18.0833 16.6495 18.215 16.8839 18.4495C17.1183 18.6839 17.25 19.0018 17.25 19.3333C17.25 19.6649 17.1183 19.9828 16.8839 20.2172C16.6495 20.4516 16.3316 20.5833 16 20.5833C15.6685 20.5833 15.3506 20.4516 15.1162 20.2172C14.8817 19.9828 14.75 19.6649 14.75 19.3333Z" fill="#0B8443"/>
<path d="M20.605 10.2633L17.9558 6.54916L8.215 14.3308L7.675 14.325V14.3333H7.25V24.3333H24.75V14.3333H23.9483L22.3533 9.6675L20.605 10.2633ZM22.1875 14.3333H13.8308L20.055 12.2117L21.3233 11.8058L22.1875 14.3333ZM18.9583 10.825L12.5333 13.015L17.6217 8.95L18.9583 10.825ZM8.91667 21.1408V17.5242C9.26848 17.4 9.58804 17.1987 9.85192 16.9349C10.1158 16.6712 10.3173 16.3517 10.4417 16H21.5583C21.6826 16.3519 21.884 16.6715 22.1479 16.9354C22.4118 17.1993 22.7314 17.4007 23.0833 17.525V21.1417C22.7314 21.2659 22.4118 21.4674 22.1479 21.7313C21.884 21.9951 21.6826 22.3148 21.5583 22.6667H10.4433C10.3185 22.3147 10.1166 21.9951 9.85252 21.7311C9.5884 21.4672 9.26867 21.2655 8.91667 21.1408Z" fill="#0B8443"/>
</svg>
