<svg width="22" height="28" viewBox="0 0 22 28" fill="none" xmlns="http://www.w3.org/2000/svg">
<path d="M20.332 0.666504C20.6857 0.666504 21.0248 0.80698 21.2748 1.05703C21.5249 1.30708 21.6654 1.64622 21.6654 1.99984V25.9998C21.6654 26.3535 21.5249 26.6926 21.2748 26.9426C21.0248 27.1927 20.6857 27.3332 20.332 27.3332H1.66536C1.31174 27.3332 0.972604 27.1927 0.722556 26.9426C0.472507 26.6926 0.332031 26.3535 0.332031 25.9998V1.99984C0.332031 1.64622 0.472507 1.30708 0.722556 1.05703C0.972604 0.80698 1.31174 0.666504 1.66536 0.666504H20.332ZM18.9987 3.33317H2.9987V24.6665H18.9987V3.33317ZM10.9987 7.33317C12.4494 7.33301 13.8605 7.80605 15.018 8.6805C16.1755 9.55496 17.0162 10.7831 17.4125 12.1786C17.8088 13.5741 17.7391 15.0608 17.214 16.4131C16.6888 17.7654 15.7369 18.9095 14.5027 19.6718L11.6654 13.9998H14.9987C14.9987 13.2087 14.7641 12.4354 14.3246 11.7776C13.8851 11.1198 13.2603 10.6071 12.5294 10.3043C11.7985 10.0016 10.9943 9.92235 10.2183 10.0767C9.44241 10.231 8.72968 10.612 8.17027 11.1714C7.61086 11.7308 7.2299 12.4436 7.07556 13.2195C6.92122 13.9954 7.00043 14.7997 7.30318 15.5306C7.60593 16.2615 8.11862 16.8862 8.77642 17.3257C9.43421 17.7652 10.2076 17.9998 10.9987 17.9998L12.272 20.5452C11.8596 20.6252 11.4351 20.6656 10.9987 20.6665C9.23059 20.6665 7.5349 19.9641 6.28465 18.7139C5.03441 17.4636 4.33203 15.7679 4.33203 13.9998C4.33203 12.2317 5.03441 10.536 6.28465 9.28579C7.5349 8.03555 9.23059 7.33317 10.9987 7.33317Z" fill="black"/>
</svg>
