<svg width="20" height="20" viewBox="0 0 20 20" fill="none" xmlns="http://www.w3.org/2000/svg">
<path d="M16.708 9.16667H4.92462L6.00796 8.09167C6.16488 7.93475 6.25303 7.72192 6.25303 7.5C6.25303 7.27808 6.16488 7.06525 6.00796 6.90833C5.85104 6.75141 5.63821 6.66326 5.41629 6.66326C5.19437 6.66326 4.98154 6.75141 4.82462 6.90833L2.32462 9.40833C2.24652 9.4858 2.18452 9.57797 2.14221 9.67952C2.09991 9.78107 2.07812 9.88999 2.07812 10C2.07812 10.11 2.09991 10.2189 2.14221 10.3205C2.18452 10.422 2.24652 10.5142 2.32462 10.5917L4.82462 13.0917C4.90209 13.1698 4.99426 13.2318 5.09581 13.2741C5.19736 13.3164 5.30628 13.3382 5.41629 13.3382C5.5263 13.3382 5.63522 13.3164 5.73677 13.2741C5.83832 13.2318 5.93049 13.1698 6.00796 13.0917C6.08606 13.0142 6.14806 12.922 6.19037 12.8205C6.23267 12.7189 6.25446 12.61 6.25446 12.5C6.25446 12.39 6.23267 12.2811 6.19037 12.1795C6.14806 12.078 6.08606 11.9858 6.00796 11.9083L4.92462 10.8333H16.708C16.9147 10.8232 17.1102 10.7366 17.2565 10.5902C17.4029 10.4439 17.4895 10.2484 17.4996 10.0417V10C17.4999 9.78602 17.4178 9.58014 17.2705 9.425C17.1231 9.26986 16.9217 9.17737 16.708 9.16667Z" fill="#090909"/>
<path d="M16.7083 14.1667H3.29167C2.85444 14.1667 2.5 14.5211 2.5 14.9583V15.0417C2.5 15.4789 2.85444 15.8333 3.29167 15.8333H16.7083C17.1456 15.8333 17.5 15.4789 17.5 15.0417V14.9583C17.5 14.5211 17.1456 14.1667 16.7083 14.1667Z" fill="#090909"/>
<path d="M16.7083 4.16667H3.29167C2.85444 4.16667 2.5 4.52111 2.5 4.95833V5.04167C2.5 5.47889 2.85444 5.83333 3.29167 5.83333H16.7083C17.1456 5.83333 17.5 5.47889 17.5 5.04167V4.95833C17.5 4.52111 17.1456 4.16667 16.7083 4.16667Z" fill="#090909"/>
</svg>
