<svg width="64" height="64" viewBox="0 0 64 64" fill="none" xmlns="http://www.w3.org/2000/svg">
<circle cx="32" cy="32" r="32" fill="#C8E8FF"/>
<path d="M32.0013 45.3334C24.6373 45.3334 18.668 39.364 18.668 32C18.668 24.636 24.6373 18.6667 32.0013 18.6667C39.3653 18.6667 45.3346 24.636 45.3346 32C45.3346 39.364 39.3653 45.3334 32.0013 45.3334ZM32.0013 42.6667C34.8303 42.6667 37.5434 41.5429 39.5438 39.5425C41.5442 37.5421 42.668 34.829 42.668 32C42.668 29.171 41.5442 26.4579 39.5438 24.4575C37.5434 22.4572 34.8303 21.3334 32.0013 21.3334C29.1723 21.3334 26.4592 22.4572 24.4588 24.4575C22.4584 26.4579 21.3346 29.171 21.3346 32C21.3346 34.829 22.4584 37.5421 24.4588 39.5425C26.4592 41.5429 29.1723 42.6667 32.0013 42.6667ZM32.0013 25.3334C32.3549 25.3334 32.6941 25.4738 32.9441 25.7239C33.1942 25.9739 33.3346 26.3131 33.3346 26.6667V33.3334C33.3346 33.687 33.1942 34.0261 32.9441 34.2762C32.6941 34.5262 32.3549 34.6667 32.0013 34.6667C31.6477 34.6667 31.3085 34.5262 31.0585 34.2762C30.8084 34.0261 30.668 33.687 30.668 33.3334V26.6667C30.668 26.3131 30.8084 25.9739 31.0585 25.7239C31.3085 25.4738 31.6477 25.3334 32.0013 25.3334ZM32.0013 38.6667C31.6477 38.6667 31.3085 38.5262 31.0585 38.2762C30.8084 38.0261 30.668 37.687 30.668 37.3334C30.668 36.9797 30.8084 36.6406 31.0585 36.3905C31.3085 36.1405 31.6477 36 32.0013 36C32.3549 36 32.6941 36.1405 32.9441 36.3905C33.1942 36.6406 33.3346 36.9797 33.3346 37.3334C33.3346 37.687 33.1942 38.0261 32.9441 38.2762C32.6941 38.5262 32.3549 38.6667 32.0013 38.6667Z" fill="#2C90D9"/>
</svg>
