<svg width="111" height="107" viewBox="0 0 111 107" fill="none" xmlns="http://www.w3.org/2000/svg">
<path d="M28.0143 74C23.5953 74 20 71.0562 20 67.438V6.55776C20 2.94188 23.5953 0 28.0143 0H82.9814C87.4028 0 91 2.94188 91 6.55776V67.438C91 71.0562 87.4028 74 82.9814 74H28.0143Z" fill="#F2F2F2"/>
<path d="M44 40.5021C44 43.5356 41.5378 46 38.5 46C35.4645 46 33 43.5356 33 40.5021C33 37.4649 35.4645 35 38.5 35C41.5378 35 44 37.4649 44 40.5021Z" fill="#CECECE"/>
<path d="M77 40.5021C77 43.5356 74.5364 46 71.5002 46C68.4613 46 66 43.5356 66 40.5021C66 37.4649 68.4613 35 71.5002 35C74.5364 35 77 37.4649 77 40.5021Z" fill="#CECECE"/>
<path d="M68.7715 59.359C68.724 59.3023 67.4264 57.7268 64.9421 56.1499C62.4602 54.574 58.7758 52.999 54.0196 53C49.7941 53.001 46.3541 54.5889 43.982 56.1598C41.607 57.7343 40.28 59.2993 40.2386 59.347C39.8906 59.7582 39.9277 60.3866 40.3209 60.7505C40.7141 61.1144 41.3151 61.0756 41.6631 60.6645C41.6988 60.6212 42.9436 59.1815 45.1017 57.7731C47.2627 56.3617 50.3191 54.9876 54.0196 54.9886C58.3687 54.9896 61.6989 56.4203 63.9555 57.8501C65.0824 58.565 65.9373 59.2789 66.504 59.8084C66.7879 60.0729 66.9995 60.2911 67.1369 60.4398C67.2058 60.5138 67.2562 60.5705 67.2881 60.6073L67.3214 60.6461L67.3275 60.6535L67.4664 60.5273L67.3271 60.6525L67.3275 60.6535L67.4664 60.5273L67.3271 60.6525C67.6684 61.0696 68.269 61.1179 68.6679 60.7609C69.0663 60.4035 69.1129 59.7761 68.7715 59.359Z" fill="#CECECE"/>
<path d="M2.17383 103H0.957031V93.1357H2.15332L7.55371 100.881H7.61523V93.1357H8.83203V103H7.63574L2.23535 95.2822H2.17383V103ZM13.5078 103.123C11.5391 103.123 10.2129 101.708 10.2129 99.4453C10.2129 97.1758 11.5391 95.7676 13.5078 95.7676C15.4697 95.7676 16.7959 97.1758 16.7959 99.4453C16.7959 101.708 15.4697 103.123 13.5078 103.123ZM13.5078 102.077C14.7656 102.077 15.5859 101.12 15.5859 99.4453C15.5859 97.7705 14.7656 96.8135 13.5078 96.8135C12.25 96.8135 11.4229 97.7705 11.4229 99.4453C11.4229 101.12 12.25 102.077 13.5078 102.077ZM27.4668 103L26.4756 100.177H22.5518L21.5605 103H20.2686L23.9053 93.1357H25.1221L28.7588 103H27.4668ZM24.4932 94.6328L22.9141 99.1309H26.1133L24.5342 94.6328H24.4932ZM35.4717 98.2217H34.3096C34.1387 97.4492 33.5371 96.8135 32.4912 96.8135C31.2607 96.8135 30.4268 97.832 30.4268 99.4453C30.4268 101.1 31.2744 102.077 32.5049 102.077C33.4756 102.077 34.1113 101.564 34.3164 100.71H35.4854C35.3008 102.125 34.1113 103.123 32.498 103.123C30.5293 103.123 29.2168 101.735 29.2168 99.4453C29.2168 97.2031 30.5225 95.7676 32.4844 95.7676C34.2617 95.7676 35.3213 96.9434 35.4717 98.2217ZM36.9619 94.1748H38.1514V95.8906H39.5322V96.8682H38.1514V101.093C38.1514 101.742 38.4248 102.036 39.0332 102.036C39.1699 102.036 39.4434 102.016 39.5254 102.002V103C39.3818 103.034 39.0537 103.055 38.7734 103.055C37.4678 103.055 36.9619 102.521 36.9619 101.154V96.8682H35.9023V95.8906H36.9619V94.1748ZM40.8652 103V95.8906H42.0547V103H40.8652ZM41.46 94.6943C41.0566 94.6943 40.7217 94.3594 40.7217 93.9561C40.7217 93.5459 41.0566 93.2178 41.46 93.2178C41.8701 93.2178 42.2051 93.5459 42.2051 93.9561C42.2051 94.3594 41.8701 94.6943 41.46 94.6943ZM49.4922 95.8906L46.8809 103H45.6641L43.0459 95.8906H44.2969L46.2588 101.735H46.2861L48.2549 95.8906H49.4922ZM53.0742 96.7998C51.96 96.7998 51.1807 97.6543 51.1055 98.8369H54.9678C54.9404 97.6475 54.1953 96.7998 53.0742 96.7998ZM54.9404 100.963H56.1094C55.9043 102.207 54.7012 103.123 53.1494 103.123C51.1123 103.123 49.875 101.708 49.875 99.4727C49.875 97.2646 51.1328 95.7676 53.0947 95.7676C55.0156 95.7676 56.1982 97.1621 56.1982 99.3154V99.7666H51.0986V99.835C51.0986 101.195 51.8984 102.091 53.1768 102.091C54.0791 102.091 54.7422 101.633 54.9404 100.963ZM64.5176 103.164C61.7969 103.164 60.0742 101.188 60.0742 98.0645C60.0742 94.9678 61.8174 92.9717 64.5176 92.9717C66.6641 92.9717 68.2979 94.2773 68.6123 96.2461H67.3682C67.0537 94.9541 65.9258 94.1064 64.5176 94.1064C62.5898 94.1064 61.3389 95.665 61.3389 98.0645C61.3389 100.484 62.5762 102.029 64.5244 102.029C65.9736 102.029 67.0127 101.332 67.3682 100.129H68.6123C68.1611 102.077 66.6982 103.164 64.5176 103.164ZM72.8301 103.123C70.8613 103.123 69.5352 101.708 69.5352 99.4453C69.5352 97.1758 70.8613 95.7676 72.8301 95.7676C74.792 95.7676 76.1182 97.1758 76.1182 99.4453C76.1182 101.708 74.792 103.123 72.8301 103.123ZM72.8301 102.077C74.0879 102.077 74.9082 101.12 74.9082 99.4453C74.9082 97.7705 74.0879 96.8135 72.8301 96.8135C71.5723 96.8135 70.7451 97.7705 70.7451 99.4453C70.7451 101.12 71.5723 102.077 72.8301 102.077ZM77.3213 103V95.8906H78.4424V97.0254H78.4697C78.8662 96.2598 79.625 95.7676 80.7256 95.7676C82.2842 95.7676 83.1865 96.7725 83.1865 98.3857V103H81.9971V98.5977C81.9971 97.4492 81.457 96.8203 80.3633 96.8203C79.2422 96.8203 78.5107 97.6133 78.5107 98.8164V103H77.3213ZM85.0869 94.1748H86.2764V95.8906H87.6572V96.8682H86.2764V101.093C86.2764 101.742 86.5498 102.036 87.1582 102.036C87.2949 102.036 87.5684 102.016 87.6504 102.002V103C87.5068 103.034 87.1787 103.055 86.8984 103.055C85.5928 103.055 85.0869 102.521 85.0869 101.154V96.8682H84.0273V95.8906H85.0869V94.1748ZM88.9287 103V95.8906H90.0498V97.0527H90.0771C90.3096 96.2666 90.9658 95.7676 91.7998 95.7676C92.0049 95.7676 92.1826 95.8018 92.2783 95.8154V96.9707C92.1826 96.9365 91.9297 96.9023 91.6426 96.9023C90.7197 96.9023 90.1182 97.5654 90.1182 98.5703V103H88.9287ZM95.457 102.111C96.5781 102.111 97.4395 101.325 97.4395 100.3V99.7188L95.5391 99.835C94.582 99.8965 94.0352 100.32 94.0352 100.99C94.0352 101.667 94.6025 102.111 95.457 102.111ZM95.1904 103.123C93.7754 103.123 92.8252 102.269 92.8252 100.99C92.8252 99.7734 93.7617 99.0078 95.4023 98.9121L97.4395 98.7959V98.2012C97.4395 97.333 96.8652 96.8135 95.8809 96.8135C94.9648 96.8135 94.3906 97.2441 94.2402 97.9414H93.0918C93.1738 96.7109 94.2266 95.7676 95.9082 95.7676C97.5762 95.7676 98.6289 96.6699 98.6289 98.085V103H97.501V101.776H97.4736C97.0498 102.59 96.1475 103.123 95.1904 103.123ZM106.046 98.2217H104.884C104.713 97.4492 104.111 96.8135 103.065 96.8135C101.835 96.8135 101.001 97.832 101.001 99.4453C101.001 101.1 101.849 102.077 103.079 102.077C104.05 102.077 104.686 101.564 104.891 100.71H106.06C105.875 102.125 104.686 103.123 103.072 103.123C101.104 103.123 99.791 101.735 99.791 99.4453C99.791 97.2031 101.097 95.7676 103.059 95.7676C104.836 95.7676 105.896 96.9434 106.046 98.2217ZM107.536 94.1748H108.726V95.8906H110.106V96.8682H108.726V101.093C108.726 101.742 108.999 102.036 109.607 102.036C109.744 102.036 110.018 102.016 110.1 102.002V103C109.956 103.034 109.628 103.055 109.348 103.055C108.042 103.055 107.536 102.521 107.536 101.154V96.8682H106.477V95.8906H107.536V94.1748Z" fill="black" fill-opacity="0.5"/>
</svg>
