<svg width="24" height="24" viewBox="0 0 24 24" fill="none" xmlns="http://www.w3.org/2000/svg">
<path d="M12 23.6668C10.3862 23.6668 8.86949 23.3604 7.45004 22.7475C6.0306 22.1346 4.79588 21.3036 3.74588 20.2543C2.69588 19.2051 1.86482 17.9704 1.25271 16.5502C0.640598 15.1299 0.334153 13.6133 0.333376 12.0002C0.332598 10.3871 0.639042 8.87039 1.25271 7.45016C1.86638 6.02994 2.69743 4.79522 3.74588 3.746C4.79432 2.69677 6.02904 1.86572 7.45004 1.25283C8.87104 0.639941 10.3877 0.333496 12 0.333496C13.6124 0.333496 15.129 0.639941 16.55 1.25283C17.971 1.86572 19.2058 2.69677 20.2542 3.746C21.3027 4.79522 22.1341 6.02994 22.7485 7.45016C23.363 8.87039 23.669 10.3871 23.6667 12.0002C23.6644 13.6133 23.3579 15.1299 22.7474 16.5502C22.1368 17.9704 21.3058 19.2051 20.2542 20.2543C19.2027 21.3036 17.9679 22.135 16.55 22.7487C15.1322 23.3623 13.6155 23.6684 12 23.6668ZM12 21.3335C14.6056 21.3335 16.8125 20.4293 18.6209 18.621C20.4292 16.8127 21.3334 14.6057 21.3334 12.0002C21.3334 9.39461 20.4292 7.18766 18.6209 5.37933C16.8125 3.571 14.6056 2.66683 12 2.66683C9.39449 2.66683 7.18754 3.571 5.37921 5.37933C3.57088 7.18766 2.66671 9.39461 2.66671 12.0002C2.66671 14.6057 3.57088 16.8127 5.37921 18.621C7.18754 20.4293 9.39449 21.3335 12 21.3335Z" fill="#D1D1D1"/>
</svg>
