<svg width="24" height="24" viewBox="0 0 24 24" fill="none" xmlns="http://www.w3.org/2000/svg">
<rect width="24" height="24" rx="4" fill="#EB0D0D"/>
<path d="M8.13967 6.77024L11.9997 10.6302L15.8397 6.79024C15.9245 6.69996 16.0267 6.62774 16.1401 6.57791C16.2535 6.52807 16.3758 6.50166 16.4997 6.50024C16.7649 6.50024 17.0192 6.6056 17.2068 6.79314C17.3943 6.98067 17.4997 7.23503 17.4997 7.50024C17.502 7.62285 17.4793 7.74463 17.4328 7.85813C17.3864 7.97162 17.3173 8.07443 17.2297 8.16024L13.3397 12.0002L17.2297 15.8902C17.3945 16.0515 17.4911 16.2698 17.4997 16.5002C17.4997 16.7655 17.3943 17.0198 17.2068 17.2074C17.0192 17.3949 16.7649 17.5002 16.4997 17.5002C16.3722 17.5055 16.2451 17.4843 16.1263 17.4378C16.0075 17.3913 15.8997 17.3206 15.8097 17.2302L11.9997 13.3702L8.14967 17.2202C8.06518 17.3075 7.96424 17.3772 7.85268 17.4252C7.74111 17.4733 7.62114 17.4988 7.49967 17.5002C7.23446 17.5002 6.9801 17.3949 6.79257 17.2074C6.60503 17.0198 6.49967 16.7655 6.49967 16.5002C6.49734 16.3776 6.52009 16.2559 6.56652 16.1424C6.61295 16.0289 6.68208 15.9261 6.76967 15.8402L10.6597 12.0002L6.76967 8.11024C6.60486 7.949 6.50821 7.73066 6.49967 7.50024C6.49967 7.23503 6.60503 6.98067 6.79257 6.79314C6.9801 6.6056 7.23446 6.50024 7.49967 6.50024C7.73967 6.50324 7.96967 6.60024 8.13967 6.77024Z" fill="white"/>
</svg>
