<svg width="14" height="12" viewBox="0 0 14 12" fill="none" xmlns="http://www.w3.org/2000/svg">
<path d="M13.2615 9.90688C13.0025 9.65188 9.86399 8.43788 9.29449 8.20888C8.72799 7.98388 8.50198 7.36038 8.50198 7.36038C8.50198 7.36038 8.24698 7.50138 8.24698 7.10538C8.24698 6.70888 8.50198 7.36038 8.75698 5.83138C8.75698 5.83138 9.46449 5.63288 9.32399 3.99138H9.15399C9.15399 3.99138 9.57899 2.23638 9.15399 1.64238C8.72748 1.04838 8.56048 0.652383 7.62398 0.368383C6.68898 0.0848835 7.02898 0.141384 6.34998 0.170384C5.66998 0.198884 5.10398 0.566883 5.10398 0.764383C5.10398 0.764383 4.67898 0.792884 4.50998 0.962883C4.33998 1.13288 4.05698 1.92488 4.05698 2.12288C4.05698 2.32088 4.19848 3.65288 4.33998 3.93488L4.17148 3.98988C4.02998 5.63188 4.73748 5.83088 4.73748 5.83088C4.99248 7.35988 5.24748 6.70838 5.24748 7.10488C5.24748 7.50088 4.99248 7.35988 4.99248 7.35988C4.99248 7.35988 4.76598 7.98288 4.19998 8.20838C3.63398 8.43488 0.491984 9.65188 0.236484 9.90638C-0.0185155 10.1664 0.00998443 11.3544 0.00998443 11.3544H6.02798L6.46698 9.62438L6.07698 9.23438L6.74848 8.56188L7.41998 9.23388L7.02998 9.62388L7.46898 11.3539H13.487C13.487 11.3539 13.5185 10.1649 13.2605 9.90538L13.2615 9.90688Z" fill="black"/>
</svg>
