<svg width="18" height="18" viewBox="0 0 18 18" fill="none" xmlns="http://www.w3.org/2000/svg">
<path d="M9 5.66667V16.5M1.5 6.50001C1.5 6.27899 1.5878 6.06703 1.74408 5.91075C1.90036 5.75447 2.11232 5.66667 2.33333 5.66667H15.6667C15.8877 5.66667 16.0996 5.75447 16.2559 5.91075C16.4122 6.06703 16.5 6.27899 16.5 6.50001V8.16667C16.5 8.38769 16.4122 8.59965 16.2559 8.75593C16.0996 8.91221 15.8877 9.00001 15.6667 9.00001H2.33333C2.11232 9.00001 1.90036 8.91221 1.74408 8.75593C1.5878 8.59965 1.5 8.38769 1.5 8.16667V6.50001Z" stroke="#0B8443" stroke-width="1.66667" stroke-linecap="round" stroke-linejoin="round"/>
<path d="M14.8334 9V14.8333C14.8334 15.2754 14.6578 15.6993 14.3452 16.0118C14.0326 16.3244 13.6087 16.5 13.1667 16.5H4.83335C4.39133 16.5 3.9674 16.3244 3.65484 16.0118C3.34228 15.6993 3.16669 15.2754 3.16669 14.8333V9M5.25002 5.66666C4.69749 5.66666 4.16758 5.44717 3.77688 5.05647C3.38618 4.66577 3.16669 4.13587 3.16669 3.58333C3.16669 3.0308 3.38618 2.50089 3.77688 2.11019C4.16758 1.71949 4.69749 1.5 5.25002 1.5C6.05393 1.48599 6.84171 1.87605 7.51063 2.6193C8.17956 3.36255 8.69858 4.4245 9.00002 5.66666C9.30146 4.4245 9.82048 3.36255 10.4894 2.6193C11.1583 1.87605 11.9461 1.48599 12.75 1.5C13.3026 1.5 13.8325 1.71949 14.2232 2.11019C14.6139 2.50089 14.8334 3.0308 14.8334 3.58333C14.8334 4.13587 14.6139 4.66577 14.2232 5.05647C13.8325 5.44717 13.3026 5.66666 12.75 5.66666" stroke="#0B8443" stroke-width="1.66667" stroke-linecap="round" stroke-linejoin="round"/>
</svg>
