<svg width="20" height="20" viewBox="0 0 20 20" fill="none" xmlns="http://www.w3.org/2000/svg">
<path d="M10 10.4167C9.22649 10.4167 8.48463 10.724 7.93765 11.2709C7.39066 11.8179 7.08337 12.5598 7.08337 13.3333C7.08337 14.1069 7.39066 14.8488 7.93765 15.3957C8.48463 15.9427 9.22649 16.25 10 16.25C10.7736 16.25 11.5155 15.9427 12.0624 15.3957C12.6094 14.8488 12.9167 14.1069 12.9167 13.3333C12.9167 12.5598 12.6094 11.8179 12.0624 11.2709C11.5155 10.724 10.7736 10.4167 10 10.4167ZM8.75004 13.3333C8.75004 13.0018 8.88174 12.6839 9.11616 12.4495C9.35058 12.215 9.66852 12.0833 10 12.0833C10.3316 12.0833 10.6495 12.215 10.8839 12.4495C11.1183 12.6839 11.25 13.0018 11.25 13.3333C11.25 13.6649 11.1183 13.9828 10.8839 14.2172C10.6495 14.4516 10.3316 14.5833 10 14.5833C9.66852 14.5833 9.35058 14.4516 9.11616 14.2172C8.88174 13.9828 8.75004 13.6649 8.75004 13.3333Z" fill="#0B8443"/>
<path d="M14.605 4.26333L11.9558 0.549164L2.215 8.33083L1.675 8.325V8.33333H1.25V18.3333H18.75V8.33333H17.9483L16.3533 3.6675L14.605 4.26333ZM16.1875 8.33333H7.83083L14.055 6.21166L15.3233 5.80583L16.1875 8.33333ZM12.9583 4.825L6.53333 7.015L11.6217 2.95L12.9583 4.825ZM2.91667 15.1408V11.5242C3.26848 11.4 3.58804 11.1987 3.85192 10.9349C4.1158 10.6712 4.31731 10.3517 4.44167 10H15.5583C15.6826 10.3519 15.884 10.6715 16.1479 10.9354C16.4118 11.1993 16.7314 11.4007 17.0833 11.525V15.1417C16.7314 15.2659 16.4118 15.4674 16.1479 15.7313C15.884 15.9951 15.6826 16.3148 15.5583 16.6667H4.44333C4.31849 16.3147 4.11664 15.9951 3.85252 15.7311C3.5884 15.4672 3.26867 15.2655 2.91667 15.1408Z" fill="#0B8443"/>
</svg>
