<svg width="14" height="14" viewBox="0 0 14 14" fill="none" xmlns="http://www.w3.org/2000/svg">
<path d="M6.33061 2.12V4.70667C6.33061 4.92085 6.28832 5.13292 6.20615 5.33071C6.12399 5.5285 6.00357 5.70812 5.85181 5.85926C5.70006 6.0104 5.51995 6.13007 5.32182 6.21143C5.12369 6.29278 4.91145 6.33421 4.69727 6.33333H2.12394C1.91034 6.33463 1.69868 6.29278 1.50164 6.2103C1.30461 6.12782 1.12625 6.00641 0.977274 5.85333C0.826018 5.70334 0.706236 5.52464 0.624956 5.32774C0.543676 5.13084 0.502533 4.91968 0.503941 4.70667V2.12667C0.503938 1.6964 0.674403 1.28366 0.978021 0.97879C1.28164 0.673922 1.69368 0.501763 2.12394 0.5H4.70394C4.91732 0.500205 5.12853 0.542735 5.32536 0.625128C5.52219 0.707521 5.70072 0.828139 5.85061 0.98C6.00227 1.12866 6.12282 1.30602 6.20523 1.50174C6.28764 1.69746 6.33026 1.90763 6.33061 2.12ZM13.4973 2.12667V4.70667C13.4938 5.13587 13.3222 5.5466 13.0194 5.85073C12.7165 6.15485 12.3065 6.32811 11.8773 6.33333H9.29061C8.85941 6.33069 8.44601 6.16104 8.13727 5.86C7.98642 5.70833 7.86696 5.52838 7.78573 5.33048C7.70451 5.13257 7.66312 4.92059 7.66394 4.70667V2.12667C7.6634 1.91318 7.7056 1.70174 7.78803 1.50481C7.87047 1.30788 7.99148 1.12944 8.14394 0.98C8.29383 0.828139 8.47236 0.707521 8.66919 0.625128C8.86602 0.542735 9.07723 0.500205 9.29061 0.5H11.8706C12.3009 0.503485 12.7127 0.675984 13.017 0.980291C13.3213 1.2846 13.4938 1.69633 13.4973 2.12667ZM13.4973 9.29333V11.8733C13.4938 12.3025 13.3222 12.7133 13.0194 13.0174C12.7165 13.3215 12.3065 13.4948 11.8773 13.5H9.29061C8.85666 13.5044 8.43811 13.3394 8.12394 13.04C7.97249 12.8888 7.85263 12.7089 7.77137 12.5109C7.69011 12.3129 7.64906 12.1007 7.65061 11.8867V9.30667C7.65007 9.09318 7.69226 8.88174 7.7747 8.68481C7.85713 8.48788 7.97815 8.30944 8.13061 8.16C8.2805 8.00814 8.45903 7.88752 8.65586 7.80513C8.85268 7.72274 9.0639 7.68021 9.27728 7.68H11.8573C12.2876 7.68349 12.6993 7.85598 13.0036 8.16029C13.308 8.4646 13.4805 8.87633 13.4839 9.30667L13.4973 9.29333ZM6.33061 9.3V11.88C6.32536 12.3103 6.15118 12.7214 5.84562 13.0244C5.54007 13.3275 5.12763 13.4983 4.69727 13.5H2.12394C1.91095 13.5009 1.6999 13.4596 1.50295 13.3785C1.30601 13.2974 1.12707 13.1781 0.976462 13.0275C0.825855 12.8769 0.70656 12.6979 0.62546 12.501C0.54436 12.304 0.503059 12.093 0.503941 11.88V9.3C0.505659 8.86964 0.676469 8.45721 0.97953 8.15165C1.28259 7.8461 1.69361 7.67191 2.12394 7.66667H4.70394C5.13608 7.67109 5.5496 7.84319 5.85727 8.14667C6.16134 8.45341 6.33153 8.86809 6.33061 9.3Z" fill="white"/>
</svg>
