<svg width="20" height="20" viewBox="0 0 20 20" fill="none" xmlns="http://www.w3.org/2000/svg">
<path d="M3.75 3.4375V3.75H4.375C4.54076 3.75 4.69973 3.68415 4.81694 3.56694C4.93415 3.44973 5 3.29076 5 3.125V2.5H4.6875C4.43886 2.5 4.2004 2.59877 4.02459 2.77459C3.84877 2.9504 3.75 3.18886 3.75 3.4375ZM4.6875 1.25H10.3125C11.52 1.25 12.5 2.23 12.5 3.4375V4.11625L16.2188 7.835C16.625 8.24129 16.9472 8.72362 17.1671 9.25444C17.3869 9.78527 17.5 10.3542 17.5 10.9288V18.125C17.5 18.2908 17.4342 18.4497 17.3169 18.5669C17.1997 18.6842 17.0408 18.75 16.875 18.75C16.7092 18.75 16.5503 18.6842 16.4331 18.5669C16.3158 18.4497 16.25 18.2908 16.25 18.125V10.9288C16.2501 10.5183 16.1693 10.1119 16.0123 9.73274C15.8553 9.35355 15.6252 9.00899 15.335 8.71875L12.5 5.88375V9.115L13.5675 10.1825C13.6849 10.2997 13.7509 10.4587 13.751 10.6246C13.7511 10.7904 13.6853 10.9495 13.5681 11.0669C13.4509 11.1842 13.2919 11.2502 13.1261 11.2503C12.9602 11.2505 12.8011 11.1847 12.6838 11.0675L11.455 9.8375L11.4125 9.795L9.8825 8.265C9.79742 8.1767 9.69558 8.10624 9.58295 8.05776C9.47032 8.00927 9.34916 7.98372 9.22654 7.98261C9.10392 7.9815 8.98231 8.00485 8.86882 8.05129C8.75533 8.09773 8.65224 8.16633 8.56557 8.25308C8.4789 8.33983 8.4104 8.44299 8.36407 8.55652C8.31774 8.67006 8.29451 8.79169 8.29574 8.91431C8.29696 9.03693 8.32262 9.15807 8.37122 9.27065C8.41981 9.38324 8.49036 9.485 8.57875 9.57L10.4425 11.4325C10.5007 11.4905 10.5469 11.5595 10.5785 11.6354C10.61 11.7114 10.6262 11.7928 10.6263 11.875V13.125C10.6263 13.4563 10.7578 13.7741 10.9919 14.0084C11.2261 14.2428 11.5437 14.3747 11.875 14.375C12.0408 14.375 12.1997 14.4408 12.3169 14.5581C12.4342 14.6753 12.5 14.8342 12.5 15V16.5625C12.5 17.1427 12.2695 17.6991 11.8593 18.1093C11.4491 18.5195 10.8927 18.75 10.3125 18.75H4.6875C4.10734 18.75 3.55094 18.5195 3.1407 18.1093C2.73047 17.6991 2.5 17.1427 2.5 16.5625V3.4375C2.5 2.23 3.48 1.25 4.6875 1.25ZM10 17.5H10.3125C10.5611 17.5 10.7996 17.4012 10.9754 17.2254C11.1512 17.0496 11.25 16.8111 11.25 16.5625V16.25H10.625C10.4592 16.25 10.3003 16.3158 10.1831 16.4331C10.0658 16.5503 10 16.7092 10 16.875V17.5ZM10.2625 15.035C9.98468 14.8005 9.76134 14.5082 9.60806 14.1786C9.45478 13.8489 9.37525 13.4898 9.375 13.1263V12.1337L9.13375 11.8925C8.82566 12.158 8.45745 12.3443 8.06105 12.4353C7.66465 12.5263 7.25204 12.5192 6.859 12.4147C6.46596 12.3101 6.10437 12.1112 5.80558 11.8353C5.5068 11.5594 5.27985 11.2147 5.14441 10.8312C5.00898 10.4477 4.96915 10.037 5.02838 9.63459C5.08762 9.23221 5.24413 8.85037 5.48433 8.52217C5.72454 8.19398 6.04119 7.92934 6.40681 7.75121C6.77244 7.57309 7.176 7.48686 7.5825 7.5C7.6825 7.38333 7.7975 7.27625 7.9275 7.17875C8.34592 6.86567 8.86308 6.7137 9.38436 6.75066C9.90564 6.78761 10.3962 7.01102 10.7662 7.38L11.25 7.865V5H10.625C10.1277 5 9.65081 4.80246 9.29917 4.45083C8.94754 4.09919 8.75 3.62228 8.75 3.125V2.5H6.25V3.125C6.25 3.62228 6.05246 4.09919 5.70083 4.45083C5.34919 4.80246 4.87228 5 4.375 5H3.75V15H4.375C4.87228 15 5.34919 15.1975 5.70083 15.5492C6.05246 15.9008 6.25 16.3777 6.25 16.875V17.5H8.75V16.875C8.74991 16.4406 8.90068 16.0196 9.17655 15.684C9.45242 15.3484 9.83626 15.119 10.2625 15.035ZM10.625 3.75H11.25V3.4375C11.25 3.18886 11.1512 2.9504 10.9754 2.77459C10.7996 2.59877 10.5611 2.5 10.3125 2.5H10V3.125C10 3.29076 10.0658 3.44973 10.1831 3.56694C10.3003 3.68415 10.4592 3.75 10.625 3.75ZM3.75 16.25V16.5625C3.75 17.08 4.17 17.5 4.6875 17.5H5V16.875C5 16.7092 4.93415 16.5503 4.81694 16.4331C4.69973 16.3158 4.54076 16.25 4.375 16.25H3.75ZM8.245 11.0038L7.695 10.4537C7.4821 10.2418 7.31568 9.98791 7.20635 9.70813C7.09702 9.42835 7.04718 9.12886 7.06 8.82875C6.89313 8.89208 6.74175 8.99041 6.61606 9.11713C6.49036 9.24384 6.39326 9.39601 6.33128 9.56339C6.26931 9.73077 6.2439 9.90948 6.25676 10.0875C6.26962 10.2655 6.32046 10.4387 6.40585 10.5955C6.49124 10.7522 6.60921 10.8888 6.75182 10.9962C6.89442 11.1035 7.05836 11.179 7.2326 11.2177C7.40685 11.2564 7.58735 11.2573 7.76198 11.2204C7.93661 11.1835 8.10131 11.1096 8.245 11.0038Z" fill="#0B8443"/>
</svg>
