<svg width="16" height="18" viewBox="0 0 16 18" fill="none" xmlns="http://www.w3.org/2000/svg">
<path fill-rule="evenodd" clip-rule="evenodd" d="M2.16667 2.16667C2.16667 1.72464 2.34226 1.30072 2.65482 0.988155C2.96738 0.675595 3.39131 0.5 3.83333 0.5H12.1667C12.6087 0.5 13.0326 0.675595 13.3452 0.988155C13.6577 1.30072 13.8333 1.72464 13.8333 2.16667V3H14.6667C14.8877 3 15.0996 3.0878 15.2559 3.24408C15.4122 3.40036 15.5 3.61232 15.5 3.83333C15.5 4.05435 15.4122 4.26631 15.2559 4.42259C15.0996 4.57887 14.8877 4.66667 14.6667 4.66667V13.8333C14.8877 13.8333 15.0996 13.9211 15.2559 14.0774C15.4122 14.2337 15.5 14.4457 15.5 14.6667C15.5 14.8877 15.4122 15.0996 15.2559 15.2559C15.0996 15.4122 14.8877 15.5 14.6667 15.5H1.33333C1.11232 15.5 0.900358 15.4122 0.744078 15.2559C0.587797 15.0996 0.5 14.8877 0.5 14.6667C0.5 14.4457 0.587797 14.2337 0.744078 14.0774C0.900358 13.9211 1.11232 13.8333 1.33333 13.8333V4.66667C1.11232 4.66667 0.900358 4.57887 0.744078 4.42259C0.587797 4.26631 0.5 4.05435 0.5 3.83333C0.5 3.61232 0.587797 3.40036 0.744078 3.24408C0.900358 3.0878 1.11232 3 1.33333 3H2.16667V2.16667ZM12.1667 2.16667V3H3.83333V2.16667H12.1667ZM13 4.66667V13.8333H10.0833V11.75C10.0833 11.1975 9.86384 10.6676 9.47314 10.2769C9.08244 9.88616 8.55253 9.66667 8 9.66667C7.44747 9.66667 6.91756 9.88616 6.52686 10.2769C6.13616 10.6676 5.91667 11.1975 5.91667 11.75V13.8333H3V4.66667H13ZM8 11.3333C8.11051 11.3333 8.21649 11.3772 8.29463 11.4554C8.37277 11.5335 8.41667 11.6395 8.41667 11.75V13.8333H7.58333V11.75C7.58333 11.6395 7.62723 11.5335 7.70537 11.4554C7.78351 11.3772 7.88949 11.3333 8 11.3333ZM4.66667 8.83333C4.88768 8.83333 5.09964 8.92113 5.25592 9.07741C5.4122 9.23369 5.5 9.44565 5.5 9.66667V10.5C5.5 10.721 5.4122 10.933 5.25592 11.0893C5.09964 11.2455 4.88768 11.3333 4.66667 11.3333C4.44565 11.3333 4.23369 11.2455 4.07741 11.0893C3.92113 10.933 3.83333 10.721 3.83333 10.5V9.66667C3.83333 9.44565 3.92113 9.23369 4.07741 9.07741C4.23369 8.92113 4.44565 8.83333 4.66667 8.83333ZM11.3333 8.83333C11.5374 8.83336 11.7344 8.9083 11.887 9.04393C12.0395 9.17956 12.137 9.36646 12.1608 9.56917L12.1667 9.66667V10.5C12.1664 10.7124 12.0851 10.9167 11.9393 11.0711C11.7935 11.2256 11.5942 11.3185 11.3822 11.331C11.1701 11.3434 10.9614 11.2744 10.7985 11.1381C10.6356 11.0018 10.5309 10.8084 10.5058 10.5975L10.5 10.5V9.66667C10.5 9.44565 10.5878 9.23369 10.7441 9.07741C10.9004 8.92113 11.1123 8.83333 11.3333 8.83333ZM4.66667 5.5C4.87078 5.50003 5.06778 5.57496 5.22031 5.7106C5.37284 5.84623 5.47029 6.03312 5.49417 6.23583L5.5 6.33333V7.16667C5.49976 7.37907 5.41843 7.58336 5.27263 7.73781C5.12682 7.89225 4.92754 7.9852 4.7155 7.99764C4.50347 8.01009 4.29468 7.9411 4.13181 7.80478C3.96893 7.66845 3.86425 7.47508 3.83917 7.26417L3.83333 7.16667V6.33333C3.83333 6.11232 3.92113 5.90036 4.07741 5.74408C4.23369 5.5878 4.44565 5.5 4.66667 5.5ZM8 5.5C8.20411 5.50003 8.40111 5.57496 8.55364 5.7106C8.70617 5.84623 8.80362 6.03312 8.8275 6.23583L8.83333 6.33333V7.16667C8.8331 7.37907 8.75177 7.58336 8.60596 7.73781C8.46015 7.89225 8.26087 7.9852 8.04884 7.99764C7.8368 8.01009 7.62802 7.9411 7.46514 7.80478C7.30226 7.66845 7.19759 7.47508 7.1725 7.26417L7.16667 7.16667V6.33333C7.16667 6.11232 7.25446 5.90036 7.41074 5.74408C7.56702 5.5878 7.77899 5.5 8 5.5ZM11.3333 5.5C11.5543 5.5 11.7663 5.5878 11.9226 5.74408C12.0789 5.90036 12.1667 6.11232 12.1667 6.33333V7.16667C12.1667 7.38768 12.0789 7.59964 11.9226 7.75592C11.7663 7.9122 11.5543 8 11.3333 8C11.1123 8 10.9004 7.9122 10.7441 7.75592C10.5878 7.59964 10.5 7.38768 10.5 7.16667V6.33333C10.5 6.11232 10.5878 5.90036 10.7441 5.74408C10.9004 5.5878 11.1123 5.5 11.3333 5.5Z" fill="#0B8443"/>
</svg>
