<svg width="32" height="32" viewBox="0 0 32 32" fill="none" xmlns="http://www.w3.org/2000/svg">
<path d="M4 13.3333V10.6667C4 9.95942 4.28095 9.28115 4.78105 8.78105C5.28115 8.28095 5.95942 8 6.66667 8H9.33333M4 13.3333C5.77733 13.3333 9.33333 12.2667 9.33333 8M4 13.3333V18.6667M9.33333 8H22.6667M4 18.6667V21.3333C4 22.0406 4.28095 22.7189 4.78105 23.219C5.28115 23.719 5.95942 24 6.66667 24H9.33333M4 18.6667C5.77733 18.6667 9.33333 19.7333 9.33333 24M28 13.3333V10.6667C28 9.95942 27.719 9.28115 27.219 8.78105C26.7189 8.28095 26.0406 8 25.3333 8H22.6667M28 13.3333C26.2227 13.3333 22.6667 12.2667 22.6667 8M28 13.3333V18.6667M28 18.6667V21.3333C28 22.0406 27.719 22.7189 27.219 23.219C26.7189 23.719 26.0406 24 25.3333 24H22.6667M28 18.6667C26.2227 18.6667 22.6667 19.7333 22.6667 24M22.6667 24H9.33333" stroke="white" stroke-width="2.66667" stroke-linecap="round" stroke-linejoin="round"/>
<path d="M16 18.6673C17.4728 18.6673 18.6667 17.4734 18.6667 16.0007C18.6667 14.5279 17.4728 13.334 16 13.334C14.5272 13.334 13.3333 14.5279 13.3333 16.0007C13.3333 17.4734 14.5272 18.6673 16 18.6673Z" stroke="white" stroke-width="2.66667" stroke-linecap="round" stroke-linejoin="round"/>
</svg>
