<svg width="32" height="32" viewBox="0 0 32 32" fill="none" xmlns="http://www.w3.org/2000/svg">
<rect width="32" height="32" rx="4" fill="#CDE6D9"/>
<path d="M16 12.6667V23.5M8.5 13.5C8.5 13.279 8.5878 13.067 8.74408 12.9107C8.90036 12.7545 9.11232 12.6667 9.33333 12.6667H22.6667C22.8877 12.6667 23.0996 12.7545 23.2559 12.9107C23.4122 13.067 23.5 13.279 23.5 13.5V15.1667C23.5 15.3877 23.4122 15.5996 23.2559 15.7559C23.0996 15.9122 22.8877 16 22.6667 16H9.33333C9.11232 16 8.90036 15.9122 8.74408 15.7559C8.5878 15.5996 8.5 15.3877 8.5 15.1667V13.5Z" stroke="#0B8443" stroke-width="1.66667" stroke-linecap="round" stroke-linejoin="round"/>
<path d="M21.8334 16V21.8333C21.8334 22.2754 21.6578 22.6993 21.3452 23.0118C21.0326 23.3244 20.6087 23.5 20.1667 23.5H11.8334C11.3913 23.5 10.9674 23.3244 10.6548 23.0118C10.3423 22.6993 10.1667 22.2754 10.1667 21.8333V16M12.25 12.6667C11.6975 12.6667 11.1676 12.4472 10.7769 12.0565C10.3862 11.6658 10.1667 11.1359 10.1667 10.5833C10.1667 10.0308 10.3862 9.50089 10.7769 9.11019C11.1676 8.71949 11.6975 8.5 12.25 8.5C13.0539 8.48599 13.8417 8.87605 14.5106 9.6193C15.1796 10.3625 15.6986 11.4245 16 12.6667C16.3015 11.4245 16.8205 10.3625 17.4894 9.6193C18.1583 8.87605 18.9461 8.48599 19.75 8.5C20.3026 8.5 20.8325 8.71949 21.2232 9.11019C21.6139 9.50089 21.8334 10.0308 21.8334 10.5833C21.8334 11.1359 21.6139 11.6658 21.2232 12.0565C20.8325 12.4472 20.3026 12.6667 19.75 12.6667" stroke="#0B8443" stroke-width="1.66667" stroke-linecap="round" stroke-linejoin="round"/>
</svg>
