<svg width="32" height="32" viewBox="0 0 32 32" fill="none" xmlns="http://www.w3.org/2000/svg">
<rect width="32" height="32" rx="4" fill="#CDE6D9"/>
<path fill-rule="evenodd" clip-rule="evenodd" d="M10.1667 10.1667C10.1667 9.72464 10.3423 9.30072 10.6548 8.98816C10.9674 8.67559 11.3913 8.5 11.8333 8.5H20.1667C20.6087 8.5 21.0326 8.67559 21.3452 8.98816C21.6577 9.30072 21.8333 9.72464 21.8333 10.1667V11H22.6667C22.8877 11 23.0996 11.0878 23.2559 11.2441C23.4122 11.4004 23.5 11.6123 23.5 11.8333C23.5 12.0543 23.4122 12.2663 23.2559 12.4226C23.0996 12.5789 22.8877 12.6667 22.6667 12.6667V21.8333C22.8877 21.8333 23.0996 21.9211 23.2559 22.0774C23.4122 22.2337 23.5 22.4457 23.5 22.6667C23.5 22.8877 23.4122 23.0996 23.2559 23.2559C23.0996 23.4122 22.8877 23.5 22.6667 23.5H9.33333C9.11232 23.5 8.90036 23.4122 8.74408 23.2559C8.5878 23.0996 8.5 22.8877 8.5 22.6667C8.5 22.4457 8.5878 22.2337 8.74408 22.0774C8.90036 21.9211 9.11232 21.8333 9.33333 21.8333V12.6667C9.11232 12.6667 8.90036 12.5789 8.74408 12.4226C8.5878 12.2663 8.5 12.0543 8.5 11.8333C8.5 11.6123 8.5878 11.4004 8.74408 11.2441C8.90036 11.0878 9.11232 11 9.33333 11H10.1667V10.1667ZM20.1667 10.1667V11H11.8333V10.1667H20.1667ZM21 12.6667V21.8333H18.0833V19.75C18.0833 19.1975 17.8638 18.6676 17.4731 18.2769C17.0824 17.8862 16.5525 17.6667 16 17.6667C15.4475 17.6667 14.9176 17.8862 14.5269 18.2769C14.1362 18.6676 13.9167 19.1975 13.9167 19.75V21.8333H11V12.6667H21ZM16 19.3333C16.1105 19.3333 16.2165 19.3772 16.2946 19.4554C16.3728 19.5335 16.4167 19.6395 16.4167 19.75V21.8333H15.5833V19.75C15.5833 19.6395 15.6272 19.5335 15.7054 19.4554C15.7835 19.3772 15.8895 19.3333 16 19.3333ZM12.6667 16.8333C12.8877 16.8333 13.0996 16.9211 13.2559 17.0774C13.4122 17.2337 13.5 17.4457 13.5 17.6667V18.5C13.5 18.721 13.4122 18.933 13.2559 19.0893C13.0996 19.2455 12.8877 19.3333 12.6667 19.3333C12.4457 19.3333 12.2337 19.2455 12.0774 19.0893C11.9211 18.933 11.8333 18.721 11.8333 18.5V17.6667C11.8333 17.4457 11.9211 17.2337 12.0774 17.0774C12.2337 16.9211 12.4457 16.8333 12.6667 16.8333ZM19.3333 16.8333C19.5374 16.8334 19.7344 16.9083 19.887 17.0439C20.0395 17.1796 20.137 17.3665 20.1608 17.5692L20.1667 17.6667V18.5C20.1664 18.7124 20.0851 18.9167 19.9393 19.0711C19.7935 19.2256 19.5942 19.3185 19.3822 19.331C19.1701 19.3434 18.9614 19.2744 18.7985 19.1381C18.6356 19.0018 18.5309 18.8084 18.5058 18.5975L18.5 18.5V17.6667C18.5 17.4457 18.5878 17.2337 18.7441 17.0774C18.9004 16.9211 19.1123 16.8333 19.3333 16.8333ZM12.6667 13.5C12.8708 13.5 13.0678 13.575 13.2203 13.7106C13.3728 13.8462 13.4703 14.0331 13.4942 14.2358L13.5 14.3333V15.1667C13.4998 15.3791 13.4184 15.5834 13.2726 15.7378C13.1268 15.8923 12.9275 15.9852 12.7155 15.9976C12.5035 16.0101 12.2947 15.9411 12.1318 15.8048C11.9689 15.6685 11.8643 15.4751 11.8392 15.2642L11.8333 15.1667V14.3333C11.8333 14.1123 11.9211 13.9004 12.0774 13.7441C12.2337 13.5878 12.4457 13.5 12.6667 13.5ZM16 13.5C16.2041 13.5 16.4011 13.575 16.5536 13.7106C16.7062 13.8462 16.8036 14.0331 16.8275 14.2358L16.8333 14.3333V15.1667C16.8331 15.3791 16.7518 15.5834 16.606 15.7378C16.4602 15.8923 16.2609 15.9852 16.0488 15.9976C15.8368 16.0101 15.628 15.9411 15.4651 15.8048C15.3023 15.6685 15.1976 15.4751 15.1725 15.2642L15.1667 15.1667V14.3333C15.1667 14.1123 15.2545 13.9004 15.4107 13.7441C15.567 13.5878 15.779 13.5 16 13.5ZM19.3333 13.5C19.5543 13.5 19.7663 13.5878 19.9226 13.7441C20.0789 13.9004 20.1667 14.1123 20.1667 14.3333V15.1667C20.1667 15.3877 20.0789 15.5996 19.9226 15.7559C19.7663 15.9122 19.5543 16 19.3333 16C19.1123 16 18.9004 15.9122 18.7441 15.7559C18.5878 15.5996 18.5 15.3877 18.5 15.1667V14.3333C18.5 14.1123 18.5878 13.9004 18.7441 13.7441C18.9004 13.5878 19.1123 13.5 19.3333 13.5Z" fill="#0B8443"/>
</svg>
