<svg width="20" height="20" viewBox="0 0 20 20" fill="none" xmlns="http://www.w3.org/2000/svg">
<path d="M2.66856 12.2943L6.64295 5.93399C7.34567 4.8094 8.46634 4.01004 9.75844 3.71173C11.0505 3.41343 12.4082 3.64062 13.5328 4.34334C14.6574 5.04606 15.4567 6.16673 15.755 7.45883C16.0533 8.75092 15.8261 10.1086 15.1234 11.2332L11.149 17.5935M2.66856 12.2943L11.149 17.5935M2.66856 12.2943L1.25515 11.4111M11.149 17.5935L12.5625 18.4767M4.87729 16.6225L6.29071 17.5057" stroke="#A0A0A0" stroke-width="2" stroke-linecap="round" stroke-linejoin="round"/>
<path d="M13.5328 4.34329C13.9231 4.58718 14.4372 4.46849 14.6811 4.07819C14.925 3.68788 14.8063 3.17377 14.416 2.92988C14.0257 2.68599 13.5116 2.80468 13.2677 3.19499C13.0238 3.58529 13.1425 4.09941 13.5328 4.34329Z" stroke="#A0A0A0" stroke-width="2"/>
</svg>
