<svg width="12" height="14" viewBox="0 0 12 14" fill="none" xmlns="http://www.w3.org/2000/svg">
<path d="M0.666626 1.66634C0.666626 1.31272 0.807102 0.97358 1.05715 0.723532C1.3072 0.473484 1.64634 0.333008 1.99996 0.333008H7.33329C7.51009 0.333046 7.67963 0.403308 7.80463 0.528341L11.138 3.86167C11.263 3.98667 11.3333 4.15621 11.3333 4.33301V12.333C11.3333 12.6866 11.1928 13.0258 10.9428 13.2758C10.6927 13.5259 10.3536 13.6663 9.99996 13.6663H1.99996C1.64634 13.6663 1.3072 13.5259 1.05715 13.2758C0.807102 13.0258 0.666626 12.6866 0.666626 12.333V1.66634ZM9.72396 4.33301L7.33329 1.94234V4.33301H9.72396ZM5.99996 1.66634H1.99996V12.333H9.99996V5.66634H6.66663C6.48982 5.66634 6.32025 5.5961 6.19522 5.47108C6.0702 5.34605 5.99996 5.17649 5.99996 4.99967V1.66634ZM3.33329 7.66634C3.33329 7.48953 3.40353 7.31996 3.52855 7.19494C3.65358 7.06991 3.82315 6.99967 3.99996 6.99967H7.99996C8.17677 6.99967 8.34634 7.06991 8.47136 7.19494C8.59639 7.31996 8.66663 7.48953 8.66663 7.66634C8.66663 7.84315 8.59639 8.01272 8.47136 8.13774C8.34634 8.26277 8.17677 8.33301 7.99996 8.33301H3.99996C3.82315 8.33301 3.65358 8.26277 3.52855 8.13774C3.40353 8.01272 3.33329 7.84315 3.33329 7.66634ZM3.33329 10.333C3.33329 10.1562 3.40353 9.98663 3.52855 9.8616C3.65358 9.73658 3.82315 9.66634 3.99996 9.66634H7.99996C8.17677 9.66634 8.34634 9.73658 8.47136 9.8616C8.59639 9.98663 8.66663 10.1562 8.66663 10.333C8.66663 10.5098 8.59639 10.6794 8.47136 10.8044C8.34634 10.9294 8.17677 10.9997 7.99996 10.9997H3.99996C3.82315 10.9997 3.65358 10.9294 3.52855 10.8044C3.40353 10.6794 3.33329 10.5098 3.33329 10.333Z" fill="black"/>
</svg>
