<svg width="22" height="29" viewBox="0 0 22 29" fill="none" xmlns="http://www.w3.org/2000/svg">
<path d="M2.9987 28.3335C2.26536 28.3335 1.63781 28.0726 1.11603 27.5508C0.594253 27.0291 0.33292 26.4011 0.332031 25.6668V12.3335C0.332031 11.6002 0.593364 10.9726 1.11603 10.4508C1.6387 9.92905 2.26625 9.66772 2.9987 9.66683H4.33203V7.00016C4.33203 5.15572 4.98225 3.58372 6.2827 2.28416C7.58314 0.984608 9.15514 0.334386 10.9987 0.333497C12.8423 0.332608 14.4147 0.98283 15.716 2.28416C17.0174 3.5855 17.6671 5.1575 17.6654 7.00016V9.66683H18.9987C19.732 9.66683 20.36 9.92816 20.8827 10.4508C21.4054 10.9735 21.6663 11.6011 21.6654 12.3335V25.6668C21.6654 26.4002 21.4045 27.0282 20.8827 27.5508C20.3609 28.0735 19.7329 28.3344 18.9987 28.3335H2.9987ZM2.9987 25.6668H18.9987V12.3335H2.9987V25.6668ZM10.9987 21.6668C11.732 21.6668 12.36 21.4059 12.8827 20.8842C13.4054 20.3624 13.6663 19.7344 13.6654 19.0002C13.6645 18.2659 13.4036 17.6384 12.8827 17.1175C12.3618 16.5966 11.7338 16.3353 10.9987 16.3335C10.2636 16.3317 9.63603 16.5931 9.11603 17.1175C8.59603 17.6419 8.3347 18.2695 8.33203 19.0002C8.32936 19.7308 8.5907 20.3588 9.11603 20.8842C9.64137 21.4095 10.2689 21.6704 10.9987 21.6668ZM6.9987 9.66683H14.9987V7.00016C14.9987 5.88905 14.6098 4.94461 13.832 4.16683C13.0543 3.38905 12.1098 3.00016 10.9987 3.00016C9.88759 3.00016 8.94314 3.38905 8.16536 4.16683C7.38759 4.94461 6.9987 5.88905 6.9987 7.00016V9.66683Z" fill="black"/>
</svg>
