<svg width="133" height="27" viewBox="0 0 133 27" fill="none" xmlns="http://www.w3.org/2000/svg">
<path d="M0.303833 26.3436V8.17221H4.59138V9.33285C4.95784 9.09105 5.42202 8.86134 5.98392 8.64372C6.54582 8.40192 7.14437 8.19639 7.77956 8.02713C8.43919 7.85787 9.06216 7.77324 9.6485 7.77324C10.8212 7.77324 11.7617 7.91832 12.4702 8.20848C13.1787 8.49864 13.765 8.94597 14.2292 9.55047C14.6934 9.28449 15.2553 9.01851 15.9149 8.75253C16.599 8.48655 17.3319 8.25684 18.1137 8.0634C18.8954 7.86996 19.665 7.77324 20.4223 7.77324C21.7416 7.77324 22.8287 7.9425 23.6838 8.28102C24.5389 8.61954 25.1985 9.1515 25.6627 9.8769C26.1513 10.6023 26.4933 11.5453 26.6888 12.706C26.8842 13.8424 26.9819 15.2207 26.9819 16.8408V26.3436H22.6944V17.1672C22.6944 15.8131 22.6089 14.725 22.4379 13.9029C22.2913 13.0808 21.9981 12.4763 21.5584 12.0894C21.1186 11.7025 20.459 11.5091 19.5795 11.5091C19.0664 11.5091 18.5412 11.5695 18.0037 11.6904C17.4907 11.7871 17.0021 11.9201 16.5379 12.0894C16.0981 12.2345 15.7439 12.3795 15.4752 12.5246C15.6217 13.0566 15.7195 13.7457 15.7683 14.592C15.8416 15.4383 15.8783 16.3088 15.8783 17.2035V26.3436H11.5907V17.276C11.5907 15.8736 11.5174 14.7613 11.3708 13.9392C11.2243 13.0929 10.9189 12.4763 10.4547 12.0894C10.015 11.7025 9.35533 11.5091 8.47583 11.5091C7.98722 11.5091 7.4864 11.5695 6.97336 11.6904C6.48475 11.7871 6.03278 11.9201 5.61746 12.0894C5.20215 12.2345 4.86012 12.3795 4.59138 12.5246V26.3436H0.303833Z" fill="white"/>
<path d="M35.7686 26.7425C33.9119 26.7425 32.5071 26.271 31.5543 25.328C30.626 24.3608 30.1618 22.9221 30.1618 21.0118C30.1618 19.7303 30.3939 18.7147 30.8581 17.9651C31.3467 17.1914 32.0552 16.6232 32.9835 16.2605C33.9119 15.8736 35.0479 15.6439 36.3916 15.5713L41.1922 15.1361V13.9392C41.1922 12.9478 40.9479 12.2586 40.4593 11.8718C39.9951 11.4849 39.311 11.2914 38.4071 11.2914C37.7475 11.2914 36.9779 11.3156 36.0984 11.364C35.2189 11.4123 34.3516 11.4728 33.4966 11.5453C32.6415 11.6179 31.8964 11.6904 31.2612 11.763L31.1146 8.67999C31.7254 8.55909 32.4705 8.4261 33.35 8.28102C34.2295 8.13594 35.1456 8.01504 36.0984 7.91832C37.0512 7.8216 37.9307 7.77324 38.7369 7.77324C40.2516 7.77324 41.5098 7.97877 42.5114 8.38983C43.5131 8.77671 44.2582 9.40539 44.7468 10.2759C45.2598 11.1464 45.5164 12.307 45.5164 13.7578V22.3176C45.5652 22.7045 45.7485 23.0067 46.066 23.2243C46.4081 23.4178 46.8112 23.5508 47.2754 23.6233L47.1654 26.6337C46.799 26.6337 46.4325 26.6337 46.066 26.6337C45.6996 26.6337 45.3576 26.6216 45.04 26.5974C44.7224 26.5733 44.4292 26.537 44.1605 26.4886C43.6719 26.3919 43.2443 26.2468 42.8779 26.0534C42.5114 25.8358 42.206 25.6061 41.9617 25.3643C41.522 25.5577 40.9601 25.7632 40.276 25.9809C39.6164 26.1743 38.8957 26.3436 38.1139 26.4886C37.3321 26.6579 36.5504 26.7425 35.7686 26.7425ZM36.7214 23.5145C37.2589 23.5145 37.8085 23.4661 38.3704 23.3694C38.9323 23.2485 39.4576 23.1155 39.9462 22.9704C40.4593 22.8254 40.8746 22.6924 41.1922 22.5715V17.8926L36.9779 18.2916C36.0984 18.3641 35.4632 18.618 35.0723 19.0533C34.6814 19.4885 34.486 20.1051 34.486 20.903C34.486 21.701 34.6692 22.3417 35.0357 22.8254C35.4266 23.2848 35.9885 23.5145 36.7214 23.5145Z" fill="white"/>
<path d="M57.1185 26.7425C56.5077 26.7425 55.787 26.7183 54.9564 26.67C54.1257 26.6216 53.2707 26.5491 52.3912 26.4524C51.5361 26.3556 50.7665 26.2831 50.0825 26.2347V0.591743H54.4067V8.82507C54.7731 8.65581 55.2251 8.49864 55.7626 8.35356C56.3245 8.1843 56.9108 8.05131 57.5216 7.95459C58.1567 7.83369 58.7431 7.77324 59.2806 7.77324C60.9663 7.77324 62.3099 8.11176 63.3116 8.7888C64.3377 9.44166 65.0706 10.4451 65.5103 11.7992C65.9501 13.1533 66.17 14.8701 66.17 16.9496C66.17 19.3676 65.889 21.302 65.3271 22.7528C64.7896 24.1794 63.8613 25.2071 62.542 25.8358C61.2228 26.4403 59.4149 26.7425 57.1185 26.7425ZM57.1185 23.1155C58.4621 23.1155 59.4516 22.8979 60.0868 22.4627C60.7464 22.0032 61.1861 21.3262 61.406 20.4315C61.6503 19.5127 61.7725 18.3762 61.7725 17.0221C61.7725 15.668 61.6625 14.5799 61.4427 13.7578C61.2472 12.9357 60.893 12.3433 60.3799 11.9806C59.8913 11.5937 59.2073 11.4003 58.3278 11.4003C57.888 11.4003 57.4116 11.4486 56.8986 11.5453C56.41 11.6179 55.9458 11.7146 55.506 11.8355C55.0663 11.9564 54.6998 12.0773 54.4067 12.1982V22.9342C54.7976 22.9825 55.2617 23.0309 55.7992 23.0792C56.3611 23.1034 56.8009 23.1155 57.1185 23.1155Z" fill="white"/>
<path d="M69.8377 26.3436V8.17221H74.1252V10.3847C74.565 10.0703 75.1024 9.73182 75.7376 9.36912C76.3728 9.00642 77.0691 8.6679 77.8264 8.35356C78.5838 8.03922 79.3167 7.83369 80.0252 7.73697V11.8718C79.3411 11.9927 78.6204 12.174 77.8631 12.4158C77.1057 12.6576 76.3973 12.9236 75.7376 13.2138C75.1024 13.4797 74.565 13.7336 74.1252 13.9754V26.3436H69.8377Z" fill="white"/>
<path d="M88.5468 26.7425C86.9588 26.7425 85.7372 26.4161 84.8822 25.7632C84.0271 25.1104 83.4286 24.1069 83.0865 22.7528C82.7445 21.3987 82.5735 19.694 82.5735 17.6387V8.17221H86.861V17.4936C86.861 18.8477 86.9221 19.9237 87.0443 20.7217C87.1909 21.5196 87.484 22.0999 87.9238 22.4627C88.388 22.8012 89.0598 22.9704 89.9393 22.9704C90.7699 22.9704 91.5395 22.8616 92.248 22.644C92.9809 22.4264 93.5672 22.2088 94.007 21.9911V8.17221H98.2945V26.3436H94.0436V25.1829C93.2374 25.6182 92.4068 25.9929 91.5517 26.3073C90.6966 26.5974 89.695 26.7425 88.5468 26.7425Z" fill="white"/>
<path d="M110.349 26.7425C108.272 26.7425 106.623 26.404 105.402 25.727C104.18 25.0257 103.301 23.9739 102.763 22.5715C102.25 21.1448 101.994 19.3192 101.994 17.0947C101.994 14.9426 102.275 13.1896 102.837 11.8355C103.398 10.4572 104.29 9.44166 105.512 8.7888C106.758 8.11176 108.37 7.77324 110.349 7.77324C112.352 7.77324 113.965 8.11176 115.186 8.7888C116.432 9.44166 117.336 10.4572 117.898 11.8355C118.46 13.1896 118.741 14.9426 118.741 17.0947C118.741 19.3192 118.472 21.1448 117.935 22.5715C117.397 23.9739 116.518 25.0257 115.296 25.727C114.075 26.404 112.426 26.7425 110.349 26.7425ZM110.349 23.1881C111.473 23.1881 112.316 22.9825 112.878 22.5715C113.464 22.1604 113.855 21.5075 114.05 20.6129C114.246 19.7182 114.343 18.5455 114.343 17.0947C114.343 15.668 114.221 14.5316 113.977 13.6853C113.757 12.839 113.354 12.2345 112.768 11.8718C112.206 11.5091 111.399 11.3277 110.349 11.3277C109.323 11.3277 108.517 11.5091 107.93 11.8718C107.344 12.2345 106.929 12.839 106.684 13.6853C106.44 14.5316 106.318 15.668 106.318 17.0947C106.318 18.5455 106.416 19.7182 106.611 20.6129C106.807 21.5075 107.197 22.1604 107.784 22.5715C108.37 22.9825 109.225 23.1881 110.349 23.1881Z" fill="white"/>
<path d="M122.409 26.3436V8.17221H126.696V10.3847C127.136 10.0703 127.673 9.73182 128.309 9.36912C128.944 9.00642 129.64 8.6679 130.397 8.35356C131.155 8.03922 131.888 7.83369 132.596 7.73697V11.8718C131.912 11.9927 131.191 12.174 130.434 12.4158C129.677 12.6576 128.968 12.9236 128.309 13.2138C127.673 13.4797 127.136 13.7336 126.696 13.9754V26.3436H122.409Z" fill="white"/>
</svg>
