<svg width="180" height="32" viewBox="0 0 180 32" fill="none" xmlns="http://www.w3.org/2000/svg">
<path d="M47.3038 30.3436V12.1722H51.5914V13.3329C51.9578 13.0911 52.422 12.8613 52.9839 12.6437C53.5458 12.4019 54.1444 12.1964 54.7796 12.0271C55.4392 11.8579 56.0622 11.7732 56.6485 11.7732C57.8212 11.7732 58.7617 11.9183 59.4702 12.2085C60.1787 12.4986 60.765 12.946 61.2292 13.5505C61.6934 13.2845 62.2553 13.0185 62.9149 12.7525C63.599 12.4865 64.3319 12.2568 65.1137 12.0634C65.8954 11.87 66.665 11.7732 67.4223 11.7732C68.7416 11.7732 69.8287 11.9425 70.6838 12.281C71.5389 12.6195 72.1985 13.1515 72.6627 13.8769C73.1513 14.6023 73.4933 15.5453 73.6888 16.706C73.8842 17.8424 73.9819 19.2207 73.9819 20.8408V30.3436H69.6944V21.1672C69.6944 19.8131 69.6089 18.725 69.4379 17.9029C69.2913 17.0808 68.9981 16.4763 68.5584 16.0894C68.1186 15.7025 67.459 15.5091 66.5795 15.5091C66.0664 15.5091 65.5412 15.5695 65.0037 15.6904C64.4907 15.7871 64.0021 15.9201 63.5379 16.0894C63.0981 16.2345 62.7439 16.3795 62.4752 16.5246C62.6217 17.0566 62.7195 17.7457 62.7683 18.592C62.8416 19.4383 62.8783 20.3088 62.8783 21.2035V30.3436H58.5907V21.276C58.5907 19.8736 58.5174 18.7613 58.3708 17.9392C58.2243 17.0929 57.9189 16.4763 57.4547 16.0894C57.015 15.7025 56.3553 15.5091 55.4758 15.5091C54.9872 15.5091 54.4864 15.5695 53.9734 15.6904C53.4847 15.7871 53.0328 15.9201 52.6175 16.0894C52.2021 16.2345 51.8601 16.3795 51.5914 16.5246V30.3436H47.3038Z" fill="white"/>
<path d="M82.7686 30.7425C80.9119 30.7425 79.5071 30.271 78.5543 29.328C77.626 28.3608 77.1618 26.9221 77.1618 25.0118C77.1618 23.7303 77.3939 22.7147 77.8581 21.9651C78.3467 21.1914 79.0552 20.6232 79.9835 20.2605C80.9119 19.8736 82.0479 19.6439 83.3916 19.5713L88.1922 19.1361V17.9392C88.1922 16.9478 87.9479 16.2586 87.4593 15.8718C86.9951 15.4849 86.311 15.2914 85.4071 15.2914C84.7475 15.2914 83.9779 15.3156 83.0984 15.364C82.2189 15.4123 81.3516 15.4728 80.4966 15.5453C79.6415 15.6179 78.8964 15.6904 78.2612 15.763L78.1146 12.68C78.7254 12.5591 79.4705 12.4261 80.35 12.281C81.2295 12.1359 82.1456 12.015 83.0984 11.9183C84.0512 11.8216 84.9307 11.7732 85.7369 11.7732C87.2516 11.7732 88.5098 11.9788 89.5114 12.3898C90.5131 12.7767 91.2582 13.4054 91.7468 14.2759C92.2598 15.1464 92.5164 16.307 92.5164 17.7578V26.3176C92.5652 26.7045 92.7485 27.0067 93.066 27.2243C93.4081 27.4178 93.8112 27.5508 94.2754 27.6233L94.1654 30.6337C93.799 30.6337 93.4325 30.6337 93.066 30.6337C92.6996 30.6337 92.3576 30.6216 92.04 30.5974C91.7224 30.5733 91.4292 30.537 91.1605 30.4886C90.6719 30.3919 90.2443 30.2468 89.8779 30.0534C89.5114 29.8358 89.206 29.6061 88.9617 29.3643C88.522 29.5577 87.9601 29.7632 87.276 29.9809C86.6164 30.1743 85.8957 30.3436 85.1139 30.4886C84.3321 30.6579 83.5504 30.7425 82.7686 30.7425ZM83.7214 27.5145C84.2589 27.5145 84.8085 27.4661 85.3704 27.3694C85.9323 27.2485 86.4576 27.1155 86.9462 26.9704C87.4593 26.8254 87.8746 26.6924 88.1922 26.5715V21.8926L83.9779 22.2916C83.0984 22.3641 82.4632 22.618 82.0723 23.0533C81.6814 23.4885 81.486 24.1051 81.486 24.903C81.486 25.701 81.6692 26.3417 82.0357 26.8254C82.4266 27.2848 82.9885 27.5145 83.7214 27.5145Z" fill="white"/>
<path d="M104.118 30.7425C103.508 30.7425 102.787 30.7183 101.956 30.67C101.126 30.6216 100.271 30.5491 99.3912 30.4524C98.5361 30.3556 97.7665 30.2831 97.0825 30.2347V4.59174H101.407V12.8251C101.773 12.6558 102.225 12.4986 102.763 12.3536C103.324 12.1843 103.911 12.0513 104.522 11.9546C105.157 11.8337 105.743 11.7732 106.281 11.7732C107.966 11.7732 109.31 12.1118 110.312 12.7888C111.338 13.4417 112.071 14.4451 112.51 15.7992C112.95 17.1533 113.17 18.8701 113.17 20.9496C113.17 23.3676 112.889 25.302 112.327 26.7528C111.79 28.1794 110.861 29.2071 109.542 29.8358C108.223 30.4403 106.415 30.7425 104.118 30.7425ZM104.118 27.1155C105.462 27.1155 106.452 26.8979 107.087 26.4627C107.746 26.0032 108.186 25.3262 108.406 24.4315C108.65 23.5127 108.772 22.3762 108.772 21.0221C108.772 19.668 108.663 18.5799 108.443 17.7578C108.247 16.9357 107.893 16.3433 107.38 15.9806C106.891 15.5937 106.207 15.4003 105.328 15.4003C104.888 15.4003 104.412 15.4486 103.899 15.5453C103.41 15.6179 102.946 15.7146 102.506 15.8355C102.066 15.9564 101.7 16.0773 101.407 16.1982V26.9342C101.798 26.9825 102.262 27.0309 102.799 27.0792C103.361 27.1034 103.801 27.1155 104.118 27.1155Z" fill="white"/>
<path d="M116.838 30.3436V12.1722H121.125V14.3847C121.565 14.0703 122.102 13.7318 122.738 13.3691C123.373 13.0064 124.069 12.6679 124.826 12.3536C125.584 12.0392 126.317 11.8337 127.025 11.737V15.8718C126.341 15.9927 125.62 16.174 124.863 16.4158C124.106 16.6576 123.397 16.9236 122.738 17.2138C122.102 17.4797 121.565 17.7336 121.125 17.9754V30.3436H116.838Z" fill="white"/>
<path d="M135.547 30.7425C133.959 30.7425 132.737 30.4161 131.882 29.7632C131.027 29.1104 130.429 28.1069 130.087 26.7528C129.745 25.3987 129.574 23.694 129.574 21.6387V12.1722H133.861V21.4936C133.861 22.8477 133.922 23.9237 134.044 24.7217C134.191 25.5196 134.484 26.0999 134.924 26.4627C135.388 26.8012 136.06 26.9704 136.939 26.9704C137.77 26.9704 138.539 26.8616 139.248 26.644C139.981 26.4264 140.567 26.2088 141.007 25.9911V12.1722H145.295V30.3436H141.044V29.1829C140.237 29.6182 139.407 29.9929 138.552 30.3073C137.697 30.5974 136.695 30.7425 135.547 30.7425Z" fill="white"/>
<path d="M157.349 30.7425C155.272 30.7425 153.623 30.404 152.402 29.727C151.18 29.0257 150.301 27.9739 149.763 26.5715C149.25 25.1448 148.994 23.3192 148.994 21.0947C148.994 18.9426 149.275 17.1896 149.837 15.8355C150.398 14.4572 151.29 13.4417 152.512 12.7888C153.758 12.1118 155.37 11.7732 157.349 11.7732C159.352 11.7732 160.965 12.1118 162.186 12.7888C163.432 13.4417 164.336 14.4572 164.898 15.8355C165.46 17.1896 165.741 18.9426 165.741 21.0947C165.741 23.3192 165.472 25.1448 164.935 26.5715C164.397 27.9739 163.518 29.0257 162.296 29.727C161.075 30.404 159.426 30.7425 157.349 30.7425ZM157.349 27.1881C158.473 27.1881 159.316 26.9825 159.878 26.5715C160.464 26.1604 160.855 25.5075 161.05 24.6129C161.246 23.7182 161.343 22.5455 161.343 21.0947C161.343 19.668 161.221 18.5316 160.977 17.6853C160.757 16.839 160.354 16.2345 159.768 15.8718C159.206 15.5091 158.399 15.3277 157.349 15.3277C156.323 15.3277 155.517 15.5091 154.93 15.8718C154.344 16.2345 153.929 16.839 153.684 17.6853C153.44 18.5316 153.318 19.668 153.318 21.0947C153.318 22.5455 153.416 23.7182 153.611 24.6129C153.807 25.5075 154.197 26.1604 154.784 26.5715C155.37 26.9825 156.225 27.1881 157.349 27.1881Z" fill="white"/>
<path d="M169.409 30.3436V12.1722H173.696V14.3847C174.136 14.0703 174.673 13.7318 175.309 13.3691C175.944 13.0064 176.64 12.6679 177.397 12.3536C178.155 12.0392 178.888 11.8337 179.596 11.737V15.8718C178.912 15.9927 178.191 16.174 177.434 16.4158C176.677 16.6576 175.968 16.9236 175.309 17.2138C174.673 17.4797 174.136 17.7336 173.696 17.9754V30.3436H169.409Z" fill="white"/>
<path d="M29.865 16L43.2044 9.33334V25.3333L29.865 32V16Z" fill="#69B68E"/>
<path d="M13.8578 16L0.518366 9.33334V25.3333L13.8578 32V16Z" fill="#69B68E"/>
<path d="M23.1953 0L43.2044 9.33333V25.3333L23.1953 16V0Z" fill="#0B8644"/>
<path d="M20.5275 0L0.518333 9.33333V25.3333L20.5275 16V0Z" fill="#0B8644"/>
</svg>
