<svg width="191" height="56" viewBox="0 0 191 56" fill="none" xmlns="http://www.w3.org/2000/svg">
<g clip-path="url(#clip0_2262_7109)">
<path d="M78.8206 56C78.617 55.9993 78.4135 55.9885 78.211 55.9674C77.9933 55.9457 77.7864 55.9262 77.5796 55.9132L77.7581 54.2143C77.965 54.2274 78.1609 54.2469 78.3438 54.2686C78.502 54.2885 78.6612 54.2994 78.8206 54.3011C79.1351 54.3107 79.4475 54.2459 79.7321 54.1121C80.0167 53.9782 80.2654 53.779 80.4578 53.5309C80.8715 53.0145 81.0783 52.3007 81.0783 51.3894V40.0071H82.9812V51.3894C82.9985 52.2256 82.8164 53.054 82.4499 53.8064C82.1242 54.4753 81.6136 55.0376 80.9782 55.4272C80.327 55.8157 79.5794 56.0142 78.8206 56ZM89.7348 56C89.1753 55.9987 88.6165 55.9581 88.0627 55.8785C87.4792 55.7982 86.8413 55.6832 86.1468 55.5378L86.4364 54.0191C87.2173 54.1232 87.8704 54.1955 88.3958 54.236C88.9213 54.2765 89.3683 54.2982 89.737 54.3011C90.933 54.3011 91.8039 54.0733 92.3496 53.6177C92.8954 53.162 93.1689 52.5003 93.1704 51.6324V41.131L94.0413 41.706H90.4206C89.7756 41.6768 89.1313 41.7779 88.5265 42.0032C88.2982 42.1099 88.0959 42.2646 87.9335 42.4568C87.7711 42.649 87.6525 42.874 87.5859 43.1163C87.4088 43.6616 87.3203 44.4637 87.3203 45.5225C87.2912 46.3318 87.377 47.1411 87.575 47.9265C87.6377 48.1706 87.7548 48.3975 87.9177 48.5902C88.0805 48.7829 88.2849 48.9365 88.5156 49.0396C89.1242 49.2649 89.7719 49.3667 90.4206 49.339H93.1661V51.0379H90.4206C89.1506 51.0379 88.1505 50.8426 87.4205 50.4521C86.692 50.0669 86.1378 49.4199 85.8703 48.6425C85.2665 46.609 85.2665 44.4447 85.8703 42.4112C86.137 41.6306 86.691 40.98 87.4205 40.5908C88.1462 40.2002 89.1462 40.0057 90.4206 40.0071H95.0646V51.6107C95.0896 52.4518 94.8663 53.2817 94.4223 53.9974C93.9781 54.6727 93.3367 55.196 92.5847 55.4966C91.6783 55.8535 90.7091 56.0247 89.7348 56ZM96.9957 56C96.7921 55.9994 96.5886 55.9885 96.3861 55.9674C96.1684 55.9457 95.9507 55.9262 95.7547 55.9132L95.9332 54.2143C96.151 54.2274 96.3339 54.2469 96.5189 54.2686C96.6771 54.2885 96.8363 54.2994 96.9957 54.3011C97.3102 54.3106 97.6225 54.2457 97.9071 54.1118C98.1917 53.978 98.4404 53.7789 98.633 53.5309C99.0466 53.0145 99.2535 52.3007 99.2535 51.3894V40.0071H101.161V51.3894C101.178 52.2256 100.996 53.054 100.629 53.8064C100.304 54.4753 99.7931 55.0376 99.1577 55.4272C98.5051 55.8162 97.756 56.0147 96.9957 56ZM100.697 51.0379V49.339H103.527V51.0379H100.697ZM103.527 51.0379C103.451 51.0398 103.375 51.0203 103.31 50.9815C103.248 50.9426 103.202 50.8847 103.177 50.8166C103.143 50.7279 103.12 50.6353 103.109 50.541C103.094 50.4202 103.086 50.2984 103.087 50.1765C103.086 50.0312 103.097 49.886 103.12 49.7426C103.137 49.636 103.183 49.5361 103.253 49.454C103.289 49.4174 103.332 49.3888 103.379 49.3701C103.427 49.3514 103.478 49.343 103.529 49.3455L103.527 51.0379ZM103.527 51.0379V49.339H109.062V51.0379H103.527ZM103.527 51.0379V49.339C103.603 49.3365 103.679 49.3553 103.745 49.3932C103.806 49.4327 103.852 49.4905 103.878 49.5581C103.91 49.6435 103.932 49.7324 103.943 49.8229C103.96 49.94 103.968 50.0582 103.967 50.1765C103.967 50.2984 103.959 50.4202 103.943 50.541C103.933 50.6352 103.911 50.7278 103.878 50.8166C103.852 50.8843 103.806 50.9421 103.745 50.9815C103.678 51.0206 103.602 51.0401 103.525 51.0379H103.527ZM109.062 51.0379C108.985 51.0398 108.91 51.0203 108.844 50.9815C108.783 50.9426 108.736 50.8847 108.711 50.8166C108.677 50.7279 108.655 50.6353 108.644 50.541C108.628 50.4202 108.621 50.2984 108.622 50.1765C108.62 50.0312 108.631 49.886 108.655 49.7426C108.671 49.636 108.717 49.5361 108.787 49.454C108.823 49.4174 108.866 49.3888 108.914 49.3701C108.962 49.3514 109.013 49.343 109.064 49.3455L109.062 51.0379ZM109.062 51.0379V49.339H114.594V51.0379H109.062ZM109.062 51.0379V49.339C109.138 49.3365 109.213 49.3553 109.279 49.3932C109.34 49.4327 109.387 49.4905 109.412 49.5581C109.444 49.6435 109.466 49.7324 109.478 49.8229C109.494 49.94 109.502 50.0582 109.501 50.1765C109.502 50.2984 109.494 50.4202 109.478 50.541C109.467 50.6352 109.445 50.7278 109.412 50.8166C109.387 50.8843 109.34 50.9421 109.279 50.9815C109.213 51.0206 109.137 51.0401 109.059 51.0379H109.062ZM114.596 51.0379C114.52 51.0398 114.444 51.0203 114.378 50.9815C114.317 50.9426 114.27 50.8847 114.246 50.8166C114.212 50.7279 114.189 50.6353 114.178 50.541C114.163 50.4202 114.155 50.2984 114.156 50.1765C114.154 50.0312 114.165 49.886 114.189 49.7426C114.206 49.636 114.252 49.5361 114.322 49.454C114.357 49.4174 114.401 49.3888 114.448 49.3701C114.496 49.3514 114.547 49.343 114.598 49.3455L114.596 51.0379ZM114.596 51.0379V49.339H120.13V51.0379H114.596ZM114.596 51.0379V49.339C114.672 49.3365 114.748 49.3553 114.814 49.3932C114.875 49.4327 114.921 49.4905 114.947 49.5581C114.979 49.6435 115.001 49.7324 115.012 49.8229C115.028 49.94 115.036 50.0582 115.036 50.1765C115.036 50.2984 115.028 50.4202 115.012 50.541C115.002 50.6352 114.98 50.7278 114.947 50.8166C114.921 50.8843 114.875 50.9421 114.814 50.9815C114.747 51.0206 114.671 51.0401 114.594 51.0379H114.596ZM120.13 51.0379C120.054 51.0398 119.979 51.0203 119.913 50.9815C119.851 50.9426 119.805 50.8847 119.78 50.8166C119.746 50.7279 119.723 50.6353 119.712 50.541C119.697 50.4202 119.69 50.2984 119.691 50.1765C119.689 50.0312 119.7 49.886 119.723 49.7426C119.74 49.636 119.786 49.5361 119.856 49.454C119.892 49.4174 119.935 49.3888 119.983 49.3701C120.03 49.3514 120.081 49.343 120.133 49.3455L120.13 51.0379ZM120.13 51.0379V49.339H123.429L122.521 50.0876V40.0071H124.404V51.0379H120.13ZM120.13 51.0379V49.339C120.207 49.3365 120.282 49.3553 120.348 49.3932C120.409 49.4327 120.456 49.4905 120.481 49.5581C120.513 49.6435 120.535 49.7324 120.546 49.8229C120.563 49.94 120.571 50.0582 120.57 50.1765C120.571 50.2984 120.563 50.4202 120.546 50.541C120.536 50.6352 120.514 50.7278 120.481 50.8166C120.456 50.8843 120.409 50.9421 120.348 50.9815C120.282 51.0206 120.205 51.0401 120.128 51.0379H120.13ZM122.525 55.1191V53.0666H124.43V55.1191H122.525ZM124.409 51.0379V49.339H126.804V51.0379H124.409ZM126.804 51.0379C126.727 51.0397 126.652 51.0202 126.586 50.9815C126.525 50.9421 126.478 50.8843 126.453 50.8166C126.42 50.7278 126.398 50.6352 126.388 50.541C126.371 50.4202 126.363 50.2984 126.364 50.1765C126.361 50.0311 126.373 49.8858 126.399 49.7426C126.414 49.6357 126.46 49.5356 126.531 49.454C126.567 49.4172 126.61 49.3885 126.658 49.3697C126.705 49.351 126.757 49.3428 126.808 49.3455L126.804 51.0379ZM126.804 51.0379V49.339H132.338V51.0379H126.804ZM126.804 51.0379V49.339C126.88 49.3364 126.955 49.3552 127.021 49.3932C127.083 49.4321 127.129 49.4901 127.154 49.5581C127.187 49.6434 127.21 49.7323 127.222 49.8229C127.237 49.9401 127.245 50.0583 127.243 50.1765C127.244 50.2984 127.237 50.4202 127.222 50.541C127.211 50.6353 127.188 50.7279 127.154 50.8166C127.129 50.8847 127.083 50.9426 127.021 50.9815C126.952 51.0223 126.873 51.0419 126.793 51.0379H126.804ZM132.338 51.0379C132.262 51.0397 132.186 51.0202 132.12 50.9815C132.059 50.9421 132.013 50.8843 131.987 50.8166C131.954 50.7278 131.932 50.6352 131.922 50.541C131.906 50.4202 131.898 50.2984 131.898 50.1765C131.896 50.0311 131.907 49.8858 131.933 49.7426C131.949 49.6357 131.995 49.5356 132.066 49.454C132.101 49.4172 132.144 49.3885 132.192 49.3697C132.24 49.351 132.291 49.3428 132.342 49.3455L132.338 51.0379ZM132.338 51.0379V49.339H137.872V51.0379H132.338ZM132.338 51.0379V49.339C132.414 49.3364 132.49 49.3552 132.556 49.3932C132.617 49.4321 132.664 49.4901 132.688 49.5581C132.721 49.6434 132.744 49.7323 132.756 49.8229C132.772 49.9401 132.779 50.0583 132.778 50.1765C132.779 50.2984 132.771 50.4202 132.756 50.541C132.745 50.6353 132.722 50.7279 132.688 50.8166C132.664 50.8847 132.617 50.9426 132.556 50.9815C132.487 51.0223 132.407 51.0419 132.327 51.0379H132.338ZM137.872 51.0379C137.796 51.0397 137.72 51.0202 137.655 50.9815C137.594 50.9421 137.547 50.8843 137.522 50.8166C137.489 50.7278 137.467 50.6352 137.457 50.541C137.44 50.4202 137.432 50.2984 137.433 50.1765C137.43 50.0311 137.442 49.8858 137.467 49.7426C137.483 49.6357 137.529 49.5356 137.6 49.454C137.636 49.4172 137.679 49.3885 137.727 49.3697C137.774 49.351 137.826 49.3428 137.877 49.3455L137.872 51.0379ZM137.872 51.0379V49.339H149.893L148.608 50.2655V45.631C148.639 44.8299 148.523 44.03 148.266 43.2704C148.164 42.9991 148.007 42.7516 147.805 42.543C147.603 42.3344 147.361 42.1692 147.093 42.0575C146.374 41.7957 145.611 41.6763 144.846 41.706C144.231 41.7053 143.618 41.7451 143.008 41.8253C142.523 41.8771 142.046 41.9923 141.591 42.1681L142.743 41.0204C142.653 41.3733 142.564 41.8181 142.477 42.3547C142.388 42.8928 142.314 43.4656 142.259 44.0775C142.205 44.6893 142.17 45.2947 142.17 45.8957C142.17 46.4967 142.201 47.1237 142.259 47.7269C142.318 48.3301 142.383 48.8487 142.457 49.2826C142.532 49.7165 142.59 50.0225 142.636 50.1982L140.842 50.7059C140.753 50.3785 140.68 50.0469 140.624 49.7122C140.536 49.2435 140.458 48.678 140.391 48.0155C140.322 47.311 140.289 46.6035 140.291 45.8957C140.29 45.192 140.327 44.4887 140.402 43.7889C140.476 43.1062 140.561 42.4849 140.657 41.9251C140.753 41.3654 140.845 40.917 140.933 40.5799C141.44 40.3996 141.963 40.2666 142.494 40.1829C143.273 40.0446 144.062 39.9778 144.852 39.9833C145.918 39.9507 146.979 40.136 147.97 40.5279C148.794 40.8766 149.463 41.511 149.853 42.3135C150.266 43.138 150.472 44.2409 150.472 45.6223V51.0292L137.872 51.0379ZM137.872 51.0379V49.339C137.949 49.3364 138.024 49.3552 138.09 49.3932C138.151 49.4321 138.198 49.4901 138.223 49.5581C138.256 49.6434 138.279 49.7323 138.29 49.8229C138.306 49.9401 138.313 50.0583 138.312 50.1765C138.313 50.2984 138.306 50.4202 138.29 50.541C138.279 50.6353 138.257 50.7279 138.223 50.8166C138.198 50.8847 138.151 50.9426 138.09 50.9815C138.021 51.0223 137.942 51.0419 137.861 51.0379H137.872Z" fill="#14578C"/>
<path fill-rule="evenodd" clip-rule="evenodd" d="M14.5437 34.2943L0.00878462 27.0215C-0.193694 21.94 3.07861 25.1729 2.87614 20.0914C7.9751 22.8057 9.59711 17.2057 14.6939 19.92L14.5437 34.2943Z" fill="#67B58D"/>
<path fill-rule="evenodd" clip-rule="evenodd" d="M31.184 34.2943L46.2066 27.0215C46.4243 21.94 38.9805 24.8257 39.1895 19.7465C33.9164 22.4586 36.2895 17.2057 31.0164 19.92L31.1731 34.2943" fill="#67B58D"/>
<path fill-rule="evenodd" clip-rule="evenodd" d="M24.1494 0L46.2217 10.0457V27.1929L24.1494 17.1472V0Z" fill="#0D8444"/>
<path fill-rule="evenodd" clip-rule="evenodd" d="M22.0723 0L0 10.0457V27.1929L22.0723 17.1472V0Z" fill="#0D8444"/>
<path d="M48.1746 32.0226V11.2868H53.6981V12.6081C54.1956 12.29 54.7227 12.0204 55.2722 11.8032C55.9273 11.5349 56.5984 11.3074 57.2817 11.1219C57.95 10.9343 58.6405 10.8372 59.3348 10.8333C60.6048 10.8333 61.6404 11.0055 62.4416 11.3497C63.2215 11.6768 63.9059 12.1947 64.4316 12.8555C65.0286 12.5046 65.6525 12.2013 66.2974 11.9486C67.0929 11.6297 67.9099 11.3672 68.7424 11.1631C69.5819 10.9483 70.4448 10.8375 71.3115 10.8333C72.8312 10.8333 74.0816 11.0329 75.0628 11.4322C76.0041 11.7993 76.808 12.4482 77.3641 13.2894C77.9653 14.2737 78.358 15.3702 78.518 16.5114C78.757 18.0765 78.8677 19.6584 78.8489 21.2414V32.0226H73.3319V21.7361C73.3504 20.5689 73.2739 19.4021 73.1033 18.2472C72.9582 17.3518 72.6548 16.7009 72.1933 16.2945C71.7317 15.888 71.0473 15.6819 70.1402 15.6761C69.6122 15.6786 69.0855 15.7272 68.5661 15.8215C68.0474 15.9063 67.5374 16.037 67.042 16.212C66.6711 16.3439 66.3076 16.496 65.9534 16.6677C66.1138 17.4021 66.2171 18.1478 66.2626 18.8981C66.3323 19.8079 66.3671 20.7575 66.3671 21.7469V32.0226H60.8567V21.825C60.8753 20.6369 60.7988 19.4492 60.628 18.2732C60.4756 17.3648 60.165 16.7038 59.6962 16.2901C59.2274 15.8764 58.5503 15.6703 57.6649 15.6718C56.667 15.6785 55.678 15.8599 54.7431 16.2077C54.3077 16.3747 53.9615 16.5244 53.6872 16.6633V32.0226H48.1746Z" fill="#14578C"/>
<path d="M87.3008 32.4761C85.1454 32.4761 83.5219 31.9322 82.4305 30.8445C81.339 29.7567 80.7932 28.1114 80.7932 25.9084C80.7932 24.365 81.0697 23.1601 81.6227 22.2937C82.2064 21.4024 83.0748 20.7335 84.0873 20.3952C85.381 19.9581 86.7323 19.7139 88.0977 19.6705L93.1553 19.2171V17.9781C93.1553 16.9859 92.9063 16.2908 92.4085 15.8931C91.9106 15.4953 91.1784 15.2957 90.2117 15.2942C89.4395 15.2942 88.5483 15.3217 87.5381 15.3767C86.5279 15.4316 85.5337 15.5004 84.5554 15.5828C83.5742 15.6652 82.7244 15.7477 82.0059 15.8301L81.8404 11.9486C82.5589 11.7822 83.4225 11.6101 84.4313 11.4322C85.44 11.2542 86.4967 11.1096 87.6013 10.9982C88.7044 10.8883 89.7269 10.8333 90.6689 10.8333C92.4368 10.8333 93.9151 11.0503 95.1038 11.4842C96.2276 11.873 97.1801 12.6403 97.797 13.6539C98.4037 14.6592 98.7078 16.0153 98.7093 17.7221V27.1798C98.7337 27.3665 98.8028 27.5446 98.9108 27.699C99.0188 27.8535 99.1625 27.9798 99.3298 28.0673C99.7151 28.2842 100.136 28.4311 100.573 28.5012L100.449 32.3025C100.013 32.3025 99.578 32.309 99.1425 32.322C98.7071 32.3351 98.3065 32.3351 97.9189 32.322C97.5715 32.3126 97.2252 32.2785 96.8826 32.2201C96.3108 32.1564 95.7557 31.9879 95.2454 31.7232C94.8474 31.5143 94.4809 31.2507 94.1568 30.9399C93.7213 31.1309 93.1204 31.3522 92.3737 31.5909C91.5799 31.8511 90.7696 32.0584 89.9483 32.2114C89.0813 32.3761 88.2008 32.4589 87.3182 32.4587M88.6267 28.3775C89.183 28.3748 89.7377 28.3196 90.2836 28.2126C90.8358 28.1103 91.3823 27.9792 91.9208 27.8199C92.3382 27.7035 92.747 27.5586 93.1444 27.386V22.6452L88.9163 23.0162C88.004 23.1008 87.3487 23.3677 86.9568 23.8233C86.5649 24.279 86.3559 24.9082 86.3559 25.7435C86.3559 26.5788 86.541 27.2167 86.9155 27.6854C87.2899 28.154 87.8604 28.3862 88.6354 28.3862" fill="#14578C"/>
<path d="M110.468 32.4761C109.779 32.4761 108.936 32.4486 107.94 32.3936C106.945 32.3387 105.929 32.2562 104.892 32.1463L102.138 31.849V2.81844H107.692V11.9486C108.19 11.7538 108.699 11.5879 109.216 11.4517C109.824 11.2868 110.467 11.1421 111.143 11.0177C111.765 10.8998 112.396 10.8381 113.028 10.8333C114.965 10.8333 116.505 11.2253 117.651 12.0093C118.796 12.7933 119.618 13.957 120.117 15.5004C120.614 17.0437 120.862 18.9849 120.862 21.3238C120.862 24.0721 120.551 26.2678 119.93 27.911C119.66 28.6797 119.237 29.3862 118.687 29.9883C118.137 30.5904 117.47 31.0757 116.727 31.4151C115.208 32.1181 113.121 32.4696 110.468 32.4696M110.509 27.8438C111.864 27.8438 112.872 27.6029 113.536 27.1213C114.199 26.6396 114.648 25.9164 114.883 24.9516C115.138 23.7851 115.255 22.5932 115.234 21.3998C115.263 20.2408 115.152 19.0825 114.903 17.9499C114.681 17.0821 114.318 16.4492 113.814 16.0515C113.311 15.6537 112.599 15.4541 111.679 15.4526C111.206 15.4557 110.734 15.5036 110.27 15.5958C109.774 15.6942 109.297 15.8048 108.84 15.9278C108.385 16.0514 108.004 16.1686 107.701 16.2771V27.6789C108.115 27.7049 108.598 27.7389 109.151 27.7809C109.704 27.8228 110.16 27.8438 110.518 27.8438" fill="#14578C"/>
<path d="M123.318 32.0226V11.2868H128.831V13.7234C129.387 13.3089 129.968 12.9299 130.572 12.5886C131.301 12.1695 132.056 11.7971 132.832 11.4734C133.58 11.1513 134.366 10.926 135.17 10.8029V16.1187C134.397 16.2431 133.634 16.4296 132.891 16.6763C132.09 16.9381 131.337 17.2209 130.633 17.5247C129.929 17.8284 129.328 18.1033 128.831 18.3492V32.0183L123.318 32.0226Z" fill="#14578C"/>
<path d="M143.294 32.4761C141.498 32.4761 140.11 32.0971 139.129 31.3392C138.147 30.5812 137.457 29.432 137.056 27.8915C136.655 26.3496 136.455 24.4084 136.455 22.068V11.2868H141.968V21.8185C141.946 22.98 142.023 24.1413 142.196 25.29C142.341 26.1449 142.652 26.751 143.128 27.1083C143.604 27.4655 144.281 27.6449 145.159 27.6463C145.97 27.6516 146.776 27.5398 147.554 27.3144C148.166 27.1479 148.763 26.9301 149.337 26.6635V11.2868H154.85V32.0204H149.388V30.7403C148.495 31.2433 147.558 31.6653 146.59 32.0009C145.525 32.3385 144.411 32.499 143.294 32.4761Z" fill="#14578C"/>
<path d="M167.001 32.4761C164.654 32.4761 162.767 32.0906 161.34 31.3196C159.91 30.5414 158.813 29.2713 158.253 27.7461C157.617 26.1362 157.299 24.0504 157.299 21.4887C157.299 19.0109 157.631 16.9938 158.294 15.4374C158.898 13.9443 160.014 12.7137 161.445 11.9659C162.88 11.208 164.731 10.829 166.996 10.829C169.291 10.829 171.15 11.208 172.572 11.9659C173.995 12.7234 175.109 13.9508 175.723 15.4374C176.399 16.9924 176.737 19.0095 176.737 21.4887C176.737 24.049 176.419 26.1348 175.784 27.7461C175.224 29.2713 174.127 30.5414 172.696 31.3196C171.272 32.0906 169.373 32.4761 166.996 32.4761M166.996 27.9327C168.159 27.9327 169.028 27.7158 169.609 27.2818C170.19 26.8479 170.582 26.1666 170.789 25.2163C171.023 23.9843 171.127 22.7314 171.1 21.4779C171.1 19.9634 170.976 18.7585 170.728 17.8631C170.48 16.9678 170.066 16.3277 169.485 15.943C168.904 15.5568 168.075 15.3644 166.996 15.3658C165.947 15.3658 165.126 15.5582 164.532 15.943C163.938 16.3277 163.517 16.9678 163.267 17.8631C163.019 18.76 162.895 19.9649 162.895 21.4779C162.869 22.7352 162.975 23.9917 163.21 25.2271C163.418 26.1774 163.811 26.866 164.39 27.2927C164.97 27.7194 165.84 27.9364 167.003 27.9436" fill="#14578C"/>
<path d="M179.145 32.0226V11.2868H184.658V13.7234C185.214 13.309 185.796 12.93 186.4 12.5886C187.128 12.17 187.882 11.7975 188.657 11.4734C189.406 11.1512 190.194 10.9258 191 10.8029V16.1187C190.226 16.2431 189.464 16.4296 188.721 16.6763C187.919 16.9381 187.166 17.2209 186.461 17.5247C185.755 17.8284 185.154 18.1033 184.658 18.3492V32.0183L179.145 32.0226Z" fill="#14578C"/>
</g>
<defs>
<clipPath id="clip0_2262_7109">
<rect width="191" height="56" fill="white"/>
</clipPath>
</defs>
</svg>
