<svg width="16" height="20" viewBox="0 0 16 20" fill="none" xmlns="http://www.w3.org/2000/svg">
<path d="M3 15.832V8.33203C3 7.00595 3.52678 5.73418 4.46447 4.7965C5.40215 3.85882 6.67392 3.33203 8 3.33203C9.32608 3.33203 10.5979 3.85882 11.5355 4.7965C12.4732 5.73418 13 7.00595 13 8.33203V15.832M3 15.832H13M3 15.832H1.33333M13 15.832H14.6667M7.16667 18.332H8.83333" stroke="#A0A0A0" stroke-width="2" stroke-linecap="round" stroke-linejoin="round"/>
<path d="M8 3.33268C8.46024 3.33268 8.83333 2.95959 8.83333 2.49935C8.83333 2.03911 8.46024 1.66602 8 1.66602C7.53976 1.66602 7.16667 2.03911 7.16667 2.49935C7.16667 2.95959 7.53976 3.33268 8 3.33268Z" stroke="#A0A0A0" stroke-width="2"/>
</svg>
