<svg width="16" height="16" viewBox="0 0 16 16" fill="none" xmlns="http://www.w3.org/2000/svg">
<path d="M5.33325 14C4.96659 14 4.65281 13.8696 4.39192 13.6087C4.13103 13.3478 4.00036 13.0338 3.99992 12.6667V11.3333H2.66659C2.29992 11.3333 1.98614 11.2029 1.72525 10.942C1.46436 10.6811 1.3337 10.3671 1.33325 10V7.33333C1.33325 6.76667 1.5277 6.29178 1.91659 5.90867C2.30547 5.52556 2.7777 5.33378 3.33325 5.33333H12.6666C13.2333 5.33333 13.7084 5.52511 14.0919 5.90867C14.4755 6.29222 14.667 6.76711 14.6666 7.33333V10C14.6666 10.3667 14.5361 10.6807 14.2753 10.942C14.0144 11.2033 13.7004 11.3338 13.3333 11.3333H11.9999V12.6667C11.9999 13.0333 11.8695 13.3473 11.6086 13.6087C11.3477 13.87 11.0337 14.0004 10.6666 14H5.33325ZM2.66659 10H3.99992C3.99992 9.63333 4.13059 9.31956 4.39192 9.05867C4.65325 8.79778 4.96703 8.66711 5.33325 8.66667H10.6666C11.0333 8.66667 11.3473 8.79733 11.6086 9.05867C11.8699 9.32 12.0004 9.63378 11.9999 10H13.3333V7.33333C13.3333 7.14444 13.2693 6.98622 13.1413 6.85867C13.0133 6.73111 12.855 6.66711 12.6666 6.66667H3.33325C3.14436 6.66667 2.98614 6.73067 2.85859 6.85867C2.73103 6.98667 2.66703 7.14489 2.66659 7.33333V10ZM10.6666 5.33333V3.33333H5.33325V5.33333H3.99992V3.33333C3.99992 2.96667 4.13059 2.65289 4.39192 2.392C4.65325 2.13111 4.96703 2.00044 5.33325 2H10.6666C11.0333 2 11.3473 2.13067 11.6086 2.392C11.8699 2.65333 12.0004 2.96711 11.9999 3.33333V5.33333H10.6666ZM11.9999 8.33333C12.1888 8.33333 12.3473 8.26933 12.4753 8.14133C12.6033 8.01333 12.667 7.85511 12.6666 7.66667C12.6661 7.47822 12.6021 7.32 12.4746 7.192C12.347 7.064 12.1888 7 11.9999 7C11.811 7 11.6528 7.064 11.5253 7.192C11.3977 7.32 11.3337 7.47822 11.3333 7.66667C11.3328 7.85511 11.3968 8.01356 11.5253 8.142C11.6537 8.27044 11.8119 8.33422 11.9999 8.33333ZM10.6666 12.6667V10H5.33325V12.6667H10.6666Z" fill="white"/>
</svg>
