<svg width="53" height="20" viewBox="0 0 53 20" fill="none" xmlns="http://www.w3.org/2000/svg">
<g clip-path="url(#clip0_674_2179)">
<path fill-rule="evenodd" clip-rule="evenodd" d="M51.2318 13.3251C51.2635 13.6874 51.5533 14.1486 52.0557 14.1486H52.3492C52.4634 14.1486 52.5566 14.0553 52.5566 13.9413V7.48061H52.5552C52.5495 7.37176 52.4596 7.28459 52.3492 7.28459H51.4392C51.3289 7.28459 51.2389 7.37176 51.2332 7.48061H51.2318V8.00557C50.6741 7.31811 49.7948 7.03277 48.9132 7.03277C46.9088 7.03277 45.2841 8.6588 45.2841 10.6647C45.2841 12.6708 46.9088 14.2968 48.9132 14.2968C49.7948 14.2968 50.756 13.9546 51.2318 13.3243V13.3251ZM48.9165 13.0257C47.6419 13.0257 46.6085 11.9687 46.6085 10.6647C46.6085 9.36094 47.6419 8.30394 48.9165 8.30394C50.1916 8.30394 51.2247 9.36094 51.2247 10.6647C51.2247 11.9687 50.1916 13.0257 48.9165 13.0257Z" fill="#0D0E10"/>
<path fill-rule="evenodd" clip-rule="evenodd" d="M44.1329 10.2042C44.1329 8.31966 42.9451 7.04834 41.0507 7.04834C40.1464 7.04834 39.4051 7.57166 39.1433 8.0212C39.0867 7.66969 38.9002 7.30021 38.322 7.30021H38.0272C37.9132 7.30021 37.8201 7.39361 37.8201 7.50759V13.3413C37.8201 13.3415 37.8201 13.3419 37.8201 13.3422V13.9688H37.8212C37.8272 14.0775 37.9172 14.1648 38.0273 14.1648H38.9376C38.9515 14.1648 38.9652 14.1631 38.9784 14.1606C38.9844 14.1594 38.99 14.157 38.9959 14.1554C39.0026 14.1533 39.0097 14.1517 39.0161 14.149C39.0242 14.1456 39.0316 14.1412 39.0391 14.1369C39.0428 14.1347 39.0467 14.1331 39.0502 14.1307C39.0593 14.1249 39.0676 14.1178 39.0757 14.1106C39.077 14.1093 39.0786 14.1084 39.0799 14.1072C39.089 14.0984 39.0972 14.0887 39.1045 14.0787C39.1273 14.0474 39.1412 14.0095 39.1435 13.9688H39.1447V10.1523C39.1447 9.14022 39.9646 8.31966 40.976 8.31966C41.9874 8.31966 42.8074 9.14022 42.8074 10.1523L42.8082 13.3424L42.8084 13.3413C42.8084 13.3441 42.8088 13.347 42.8088 13.3501V13.9688H42.8101C42.8161 14.0775 42.906 14.1648 43.016 14.1648H43.9264C43.9404 14.1648 43.954 14.1631 43.9671 14.1606C43.9725 14.1596 43.9775 14.1574 43.9828 14.1559C43.9902 14.1537 43.9979 14.1519 44.0051 14.149C44.0125 14.1459 44.0193 14.1416 44.0263 14.1376C44.0306 14.1352 44.0351 14.1335 44.0392 14.1307C44.0476 14.1252 44.0553 14.1185 44.0629 14.1119C44.0648 14.1101 44.067 14.1088 44.0688 14.107C44.0774 14.0987 44.0851 14.0897 44.0921 14.0803C44.0926 14.0795 44.0932 14.079 44.0937 14.0783C44.1162 14.0473 44.1299 14.0098 44.1323 13.9694C44.1323 13.9691 44.1324 13.9688 44.1324 13.9688H44.1336L44.1329 10.2042Z" fill="#0D0E10"/>
<path fill-rule="evenodd" clip-rule="evenodd" d="M34.6531 13.3251C34.685 13.6874 34.9748 14.1486 35.4769 14.1486H35.7706C35.8845 14.1486 35.9777 14.0553 35.9777 13.9413V7.48061H35.9765C35.9706 7.37176 35.8806 7.28459 35.7706 7.28459H34.8603C34.7503 7.28459 34.6603 7.37176 34.6542 7.48061H34.6531V8.00557C34.0954 7.31811 33.2161 7.03277 32.3343 7.03277C30.33 7.03277 28.7053 8.65879 28.7053 10.6647C28.7053 12.6708 30.33 14.2968 32.3343 14.2968C33.2161 14.2968 34.1771 13.9547 34.653 13.3243L34.6531 13.3251ZM32.3378 13.0257C31.0632 13.0257 30.0298 11.9688 30.0298 10.6647C30.0298 9.36094 31.0632 8.30394 32.3378 8.30394C33.6126 8.30394 34.6459 9.36094 34.6459 10.6647C34.6459 11.9688 33.6126 13.0257 32.3378 13.0257Z" fill="#0D0E10"/>
<path fill-rule="evenodd" clip-rule="evenodd" d="M23.3223 12.3998C23.93 12.8211 24.5933 13.0258 25.2307 13.0258C25.838 13.0258 26.4657 12.7107 26.4657 12.1623C26.4657 11.4302 25.0978 11.3163 24.2383 11.024C23.3787 10.7316 22.6383 10.1273 22.6383 9.14865C22.6383 7.65116 23.9716 7.03267 25.216 7.03267C26.0044 7.03267 26.8179 7.29287 27.3453 7.6656C27.527 7.80334 27.4164 7.96147 27.4164 7.96147L26.9129 8.68108C26.8563 8.76213 26.7574 8.83216 26.6154 8.74443C26.4733 8.65677 25.9752 8.30388 25.216 8.30388C24.4567 8.30388 23.9994 8.65478 23.9994 9.08971C23.9994 9.61126 24.5938 9.7753 25.29 9.95306C26.5033 10.2804 27.8268 10.6738 27.8268 12.1623C27.8268 13.4817 26.5936 14.2971 25.2307 14.2971C24.1979 14.2971 23.3185 14.0025 22.581 13.4608C22.4274 13.307 22.5347 13.1641 22.5347 13.1641L23.0357 12.4481C23.1376 12.3143 23.2661 12.3609 23.3223 12.3998Z" fill="#0D0E10"/>
<path fill-rule="evenodd" clip-rule="evenodd" d="M19.8229 13.3251C19.8547 13.6874 20.1445 14.1486 20.6465 14.1486H20.9403C21.0542 14.1486 21.1475 14.0553 21.1475 13.9413V7.48061H21.1463C21.1403 7.37176 21.0504 7.28459 20.9403 7.28459H20.0301C19.92 7.28459 19.8301 7.37176 19.824 7.48061H19.8229V8.00557C19.2652 7.31811 18.3858 7.03277 17.5041 7.03277C15.4998 7.03277 13.875 8.65879 13.875 10.6647C13.875 12.6708 15.4998 14.2968 17.5041 14.2968C18.3858 14.2968 19.3468 13.9547 19.8227 13.3243L19.8229 13.3251ZM17.5076 13.0257C16.2329 13.0257 15.1995 11.9688 15.1995 10.6647C15.1995 9.36094 16.2329 8.30394 17.5076 8.30394C18.7823 8.30394 19.8156 9.36094 19.8156 10.6647C19.8156 11.9688 18.7823 13.0257 17.5076 13.0257Z" fill="#0D0E10"/>
<path fill-rule="evenodd" clip-rule="evenodd" d="M8.78731 10.9117C7.43854 10.9117 6.34508 12.0051 6.34508 13.354C6.34508 14.7028 7.43854 15.7963 8.78731 15.7963C10.1361 15.7963 11.2295 14.7028 11.2295 13.354C11.2295 12.0051 10.1361 10.9117 8.78731 10.9117ZM2.44223 10.9119C1.09343 10.9119 0 12.0051 0 13.354C0 14.7028 1.09343 15.7963 2.44223 15.7963C3.79107 15.7963 4.88456 14.7028 4.88456 13.354C4.88456 12.0051 3.79107 10.9119 2.44223 10.9119ZM8.05696 7.85884C8.05696 9.20775 6.96359 10.3013 5.61477 10.3013C4.26593 10.3013 3.17256 9.20775 3.17256 7.85884C3.17256 6.51021 4.26593 5.41667 5.61477 5.41667C6.96359 5.41667 8.05696 6.51021 8.05696 7.85884Z" fill="#F06A6A"/>
</g>
<defs>
<clipPath id="clip0_674_2179">
<rect width="52.9167" height="20" fill="white"/>
</clipPath>
</defs>
</svg>
