<svg width="14" height="14" viewBox="0 0 14 14" fill="none" xmlns="http://www.w3.org/2000/svg">
<path d="M13.25 9.70983L10.57 6.99983L12.83 4.73983C13.0626 4.50845 13.2471 4.23342 13.373 3.93052C13.4989 3.62763 13.5637 3.30284 13.5637 2.97483C13.5637 2.64681 13.4989 2.32202 13.373 2.01913C13.2471 1.71624 13.0626 1.4412 12.83 1.20983C12.3614 0.742675 11.7267 0.480355 11.065 0.480355C10.4034 0.480355 9.76866 0.742675 9.30005 1.20983L8.41005 2.08983L7.00005 3.49983L4.28005 0.749826C4.0447 0.520159 3.72889 0.391602 3.40005 0.391602C3.07121 0.391602 2.7554 0.520159 2.52005 0.749826L0.750047 2.51983C0.633639 2.63594 0.541282 2.77388 0.478266 2.92574C0.41525 3.0776 0.382812 3.24041 0.382812 3.40483C0.382812 3.56924 0.41525 3.73205 0.478266 3.88391C0.541282 4.03577 0.633639 4.17371 0.750047 4.28983L3.50005 6.99983L3.28005 7.21983L2.39005 8.09983L0.640047 11.7598C0.526787 11.9935 0.489134 12.2567 0.532322 12.5128C0.575509 12.7689 0.697391 13.0052 0.881034 13.1888C1.06468 13.3725 1.30096 13.4944 1.55705 13.5376C1.81315 13.5807 2.07633 13.5431 2.31005 13.4298L5.93005 11.6798L6.42005 11.1898L6.81005 10.7998L7.00005 10.5698L9.68005 13.2498C9.9154 13.4795 10.2312 13.6081 10.56 13.6081C10.8889 13.6081 11.2047 13.4795 11.44 13.2498L13.21 11.4798C13.3291 11.3664 13.4246 11.2305 13.4911 11.0801C13.5576 10.9296 13.5937 10.7676 13.5974 10.6031C13.6011 10.4387 13.5724 10.2752 13.5128 10.1219C13.4531 9.96857 13.3639 9.82855 13.25 9.70983ZM11.06 1.70983C11.3924 1.70875 11.7119 1.838 11.95 2.06983C12.0665 2.18594 12.1588 2.32388 12.2218 2.47574C12.2848 2.6276 12.3173 2.79041 12.3173 2.95483C12.3173 3.11924 12.2848 3.28205 12.2218 3.43391C12.1588 3.58577 12.0665 3.72371 11.95 3.83983L10.18 2.11983C10.4157 1.89041 10.7312 1.76135 11.06 1.75983V1.70983ZM1.63005 3.39983L3.40005 1.63983L4.22005 2.45983L3.35005 3.33983L4.23005 4.21983L5.11005 3.33983L6.11005 4.33983L4.38005 6.14983L1.63005 3.39983ZM1.76005 12.3098L3.33005 9.07983L5.00005 10.7398L1.76005 12.3098ZM5.93005 9.90983L4.16005 8.13983L9.30005 2.99983L11.06 4.75983L5.93005 9.90983ZM10.6 12.3598L7.92005 9.68983L9.69005 7.91983L10.62 8.84983L9.74005 9.72983L10.62 10.6198L11.51 9.72983L12.37 10.5998L10.6 12.3598Z" fill="black"/>
</svg>
