<svg width="14" height="14" viewBox="0 0 14 14" fill="none" xmlns="http://www.w3.org/2000/svg">
<path d="M6.33012 2.12V4.70667C6.33012 4.92085 6.28783 5.13292 6.20566 5.33071C6.1235 5.5285 6.00308 5.70812 5.85133 5.85926C5.69957 6.0104 5.51946 6.13007 5.32133 6.21143C5.12321 6.29278 4.91096 6.33421 4.69679 6.33333H2.12345C1.90985 6.33463 1.69819 6.29278 1.50116 6.2103C1.30412 6.12782 1.12577 6.00641 0.976786 5.85333C0.825529 5.70334 0.705748 5.52464 0.624468 5.32774C0.543187 5.13084 0.502045 4.91968 0.503453 4.70667V2.12667C0.503449 1.6964 0.673914 1.28366 0.977533 0.97879C1.28115 0.673922 1.69319 0.501763 2.12345 0.5H4.70345C4.91683 0.500205 5.12805 0.542735 5.32487 0.625128C5.5217 0.707521 5.70023 0.828139 5.85012 0.98C6.00178 1.12866 6.12233 1.30602 6.20474 1.50174C6.28715 1.69746 6.32977 1.90763 6.33012 2.12ZM13.4968 2.12667V4.70667C13.4933 5.13587 13.3217 5.5466 13.0189 5.85073C12.716 6.15485 12.306 6.32811 11.8768 6.33333H9.29012C8.85892 6.33069 8.44552 6.16104 8.13679 5.86C7.98593 5.70833 7.86647 5.52838 7.78525 5.33048C7.70402 5.13257 7.66264 4.92059 7.66345 4.70667V2.12667C7.66291 1.91318 7.70511 1.70174 7.78754 1.50481C7.86998 1.30788 7.99099 1.12944 8.14345 0.98C8.29335 0.828139 8.47187 0.707521 8.6687 0.625128C8.86553 0.542735 9.07674 0.500205 9.29012 0.5H11.8701C12.3005 0.503485 12.7122 0.675984 13.0165 0.980291C13.3208 1.2846 13.4933 1.69633 13.4968 2.12667ZM13.4968 9.29333V11.8733C13.4933 12.3025 13.3217 12.7133 13.0189 13.0174C12.716 13.3215 12.306 13.4948 11.8768 13.5H9.29012C8.85617 13.5044 8.43762 13.3394 8.12345 13.04C7.972 12.8888 7.85215 12.7089 7.77088 12.5109C7.68962 12.3129 7.64857 12.1007 7.65012 11.8867V9.30667C7.64958 9.09318 7.69177 8.88174 7.77421 8.68481C7.85664 8.48788 7.97766 8.30944 8.13012 8.16C8.28001 8.00814 8.45854 7.88752 8.65537 7.80513C8.85219 7.72274 9.06341 7.68021 9.27679 7.68H11.8568C12.2871 7.68349 12.6989 7.85598 13.0032 8.16029C13.3075 8.4646 13.48 8.87633 13.4835 9.30667L13.4968 9.29333ZM6.33012 9.3V11.88C6.32487 12.3103 6.15069 12.7214 5.84513 13.0244C5.53958 13.3275 5.12714 13.4983 4.69679 13.5H2.12345C1.91046 13.5009 1.69941 13.4596 1.50246 13.3785C1.30552 13.2974 1.12658 13.1781 0.975973 13.0275C0.825367 12.8769 0.706072 12.6979 0.624972 12.501C0.543871 12.304 0.502571 12.093 0.503453 11.88V9.3C0.50517 8.86964 0.675981 8.45721 0.979042 8.15165C1.2821 7.8461 1.69313 7.67191 2.12345 7.66667H4.70345C5.13559 7.67109 5.54911 7.84319 5.85679 8.14667C6.16085 8.45341 6.33104 8.86809 6.33012 9.3Z" fill="white"/>
</svg>
