<svg width="14" height="14" viewBox="0 0 14 14" fill="none" xmlns="http://www.w3.org/2000/svg">
<path fill-rule="evenodd" clip-rule="evenodd" d="M7.66675 2.66666C7.66675 1.378 6.62206 0.333344 5.3334 0.333344L5.20537 0.336781C3.97625 0.40325 3.00006 1.42097 3.00006 2.66666C3.00006 3.95534 4.04475 5 5.3334 5L5.46144 4.99653C6.69056 4.93009 7.66675 3.91237 7.66675 2.66666ZM6.00006 10.3333C6.00006 11.0619 6.19484 11.745 6.53519 12.3333H0.666748V9.93334C0.666748 7.99481 2.15637 6.41416 4.02247 6.33634L4.16672 6.33334H6.50006C7.10737 6.33334 7.67856 6.49244 8.17637 6.77231C6.88422 7.43541 6.00006 8.78113 6.00006 10.3333ZM8.04078 13.0301L10.0001 11.8333L11.9593 13.0301L11.4267 10.7968L13.1702 9.30328L10.8817 9.11981L10.0001 7L9.11837 9.11981L6.82987 9.30328L8.57347 10.7968L8.04078 13.0301Z" fill="#6C727F"/>
</svg>
