<svg width="20" height="20" viewBox="0 0 20 20" fill="none" xmlns="http://www.w3.org/2000/svg">
<path d="M5.83203 5.83334H4.9987C4.55667 5.83334 4.13275 6.00893 3.82019 6.32149C3.50763 6.63405 3.33203 7.05798 3.33203 7.5V15C3.33203 15.442 3.50763 15.866 3.82019 16.1785C4.13275 16.4911 4.55667 16.6667 4.9987 16.6667H12.4987C12.9407 16.6667 13.3646 16.4911 13.6772 16.1785C13.9898 15.866 14.1654 15.442 14.1654 15V14.1667" stroke="black" stroke-width="1.5" stroke-linecap="round" stroke-linejoin="round"/>
<path d="M13.3333 4.16667L15.8333 6.66667M16.9875 5.4875C17.3157 5.1593 17.5001 4.71415 17.5001 4.25C17.5001 3.78585 17.3157 3.34071 16.9875 3.0125C16.6593 2.6843 16.2142 2.49991 15.75 2.49991C15.2858 2.49991 14.8407 2.6843 14.5125 3.0125L7.5 10V12.5H10L16.9875 5.4875Z" stroke="black" stroke-width="1.5" stroke-linecap="round" stroke-linejoin="round"/>
</svg>
