<svg width="32" height="32" viewBox="0 0 32 32" fill="none" xmlns="http://www.w3.org/2000/svg">
<rect width="32" height="32" rx="4" fill="#CDE6D9"/>
<path d="M9.75 9.4375V9.75H10.375C10.5408 9.75 10.6997 9.68415 10.8169 9.56694C10.9342 9.44973 11 9.29076 11 9.125V8.5H10.6875C10.4389 8.5 10.2004 8.59877 10.0246 8.77459C9.84877 8.9504 9.75 9.18886 9.75 9.4375ZM10.6875 7.25H16.3125C17.52 7.25 18.5 8.23 18.5 9.4375V10.1163L22.2188 13.835C22.625 14.2413 22.9472 14.7236 23.1671 15.2544C23.3869 15.7853 23.5 16.3542 23.5 16.9288V24.125C23.5 24.2908 23.4342 24.4497 23.3169 24.5669C23.1997 24.6842 23.0408 24.75 22.875 24.75C22.7092 24.75 22.5503 24.6842 22.4331 24.5669C22.3158 24.4497 22.25 24.2908 22.25 24.125V16.9288C22.2501 16.5183 22.1693 16.1119 22.0123 15.7327C21.8553 15.3535 21.6252 15.009 21.335 14.7188L18.5 11.8837V15.115L19.5675 16.1825C19.6849 16.2997 19.7509 16.4587 19.751 16.6246C19.7511 16.7904 19.6853 16.9495 19.5681 17.0669C19.4509 17.1842 19.2919 17.2502 19.1261 17.2503C18.9602 17.2505 18.8011 17.1847 18.6838 17.0675L17.455 15.8375L17.4125 15.795L15.8825 14.265C15.7974 14.1767 15.6956 14.1062 15.583 14.0578C15.4703 14.0093 15.3492 13.9837 15.2265 13.9826C15.1039 13.9815 14.9823 14.0049 14.8688 14.0513C14.7553 14.0977 14.6522 14.1663 14.5656 14.2531C14.4789 14.3398 14.4104 14.443 14.3641 14.5565C14.3177 14.6701 14.2945 14.7917 14.2957 14.9143C14.297 15.0369 14.3226 15.1581 14.3712 15.2707C14.4198 15.3832 14.4904 15.485 14.5787 15.57L16.4425 17.4325C16.5007 17.4905 16.5469 17.5595 16.5785 17.6354C16.61 17.7114 16.6262 17.7928 16.6263 17.875V19.125C16.6263 19.4563 16.7578 19.7741 16.9919 20.0084C17.2261 20.2428 17.5437 20.3747 17.875 20.375C18.0408 20.375 18.1997 20.4408 18.3169 20.5581C18.4342 20.6753 18.5 20.8342 18.5 21V22.5625C18.5 23.1427 18.2695 23.6991 17.8593 24.1093C17.4491 24.5195 16.8927 24.75 16.3125 24.75H10.6875C10.1073 24.75 9.55094 24.5195 9.1407 24.1093C8.73047 23.6991 8.5 23.1427 8.5 22.5625V9.4375C8.5 8.23 9.48 7.25 10.6875 7.25ZM16 23.5H16.3125C16.5611 23.5 16.7996 23.4012 16.9754 23.2254C17.1512 23.0496 17.25 22.8111 17.25 22.5625V22.25H16.625C16.4592 22.25 16.3003 22.3158 16.1831 22.4331C16.0658 22.5503 16 22.7092 16 22.875V23.5ZM16.2625 21.035C15.9847 20.8005 15.7613 20.5082 15.6081 20.1786C15.4548 19.8489 15.3752 19.4898 15.375 19.1263V18.1337L15.1337 17.8925C14.8257 18.158 14.4574 18.3443 14.061 18.4353C13.6646 18.5263 13.252 18.5192 12.859 18.4147C12.466 18.3101 12.1044 18.1112 11.8056 17.8353C11.5068 17.5594 11.2798 17.2147 11.1444 16.8312C11.009 16.4477 10.9691 16.037 11.0284 15.6346C11.0876 15.2322 11.2441 14.8504 11.4843 14.5222C11.7245 14.194 12.0412 13.9293 12.4068 13.7512C12.7724 13.5731 13.176 13.4869 13.5825 13.5C13.6825 13.3833 13.7975 13.2762 13.9275 13.1788C14.3459 12.8657 14.8631 12.7137 15.3844 12.7507C15.9056 12.7876 16.3962 13.011 16.7662 13.38L17.25 13.865V11H16.625C16.1277 11 15.6508 10.8025 15.2992 10.4508C14.9475 10.0992 14.75 9.62228 14.75 9.125V8.5H12.25V9.125C12.25 9.62228 12.0525 10.0992 11.7008 10.4508C11.3492 10.8025 10.8723 11 10.375 11H9.75V21H10.375C10.8723 21 11.3492 21.1975 11.7008 21.5492C12.0525 21.9008 12.25 22.3777 12.25 22.875V23.5H14.75V22.875C14.7499 22.4406 14.9007 22.0196 15.1766 21.684C15.4524 21.3484 15.8363 21.119 16.2625 21.035ZM16.625 9.75H17.25V9.4375C17.25 9.18886 17.1512 8.9504 16.9754 8.77459C16.7996 8.59877 16.5611 8.5 16.3125 8.5H16V9.125C16 9.29076 16.0658 9.44973 16.1831 9.56694C16.3003 9.68415 16.4592 9.75 16.625 9.75ZM9.75 22.25V22.5625C9.75 23.08 10.17 23.5 10.6875 23.5H11V22.875C11 22.7092 10.9342 22.5503 10.8169 22.4331C10.6997 22.3158 10.5408 22.25 10.375 22.25H9.75ZM14.245 17.0038L13.695 16.4537C13.4821 16.2418 13.3157 15.9879 13.2064 15.7081C13.097 15.4283 13.0472 15.1289 13.06 14.8288C12.8931 14.8921 12.7418 14.9904 12.6161 15.1171C12.4904 15.2438 12.3933 15.396 12.3313 15.5634C12.2693 15.7308 12.2439 15.9095 12.2568 16.0875C12.2696 16.2655 12.3205 16.4387 12.4059 16.5955C12.4912 16.7522 12.6092 16.8888 12.7518 16.9962C12.8944 17.1035 13.0584 17.179 13.2326 17.2177C13.4068 17.2564 13.5874 17.2573 13.762 17.2204C13.9366 17.1835 14.1013 17.1096 14.245 17.0038Z" fill="#0B8443"/>
</svg>
