<svg width="16" height="14" viewBox="0 0 16 14" fill="none" xmlns="http://www.w3.org/2000/svg">
<path d="M13.3333 0.333008H6.66663C6.13619 0.333008 5.62749 0.543722 5.25241 0.918794C4.87734 1.29387 4.66663 1.80257 4.66663 2.33301V6.99967C4.66663 7.53011 4.87734 8.03882 5.25241 8.41389C5.62749 8.78896 6.13619 8.99967 6.66663 8.99967H13.3333C13.8637 8.99967 14.3724 8.78896 14.7475 8.41389C15.1226 8.03882 15.3333 7.53011 15.3333 6.99967V2.33301C15.3333 1.80257 15.1226 1.29387 14.7475 0.918794C14.3724 0.543722 13.8637 0.333008 13.3333 0.333008ZM14 6.99967C14 7.17649 13.9297 7.34605 13.8047 7.47108C13.6797 7.5961 13.5101 7.66634 13.3333 7.66634H6.66663C6.48982 7.66634 6.32025 7.5961 6.19522 7.47108C6.0702 7.34605 5.99996 7.17649 5.99996 6.99967V2.33301C5.99996 2.1562 6.0702 1.98663 6.19522 1.8616C6.32025 1.73658 6.48982 1.66634 6.66663 1.66634H13.3333C13.5101 1.66634 13.6797 1.73658 13.8047 1.8616C13.9297 1.98663 14 2.1562 14 2.33301V6.99967ZM11.6666 4.33301C11.4198 4.33384 11.1822 4.42653 11 4.59301C10.8566 4.46271 10.6785 4.37685 10.4873 4.34588C10.296 4.3149 10.0999 4.34013 9.92276 4.41851C9.7456 4.49689 9.59502 4.62504 9.48932 4.78739C9.38362 4.94973 9.32735 5.13928 9.32735 5.33301C9.32735 5.52673 9.38362 5.71628 9.48932 5.87863C9.59502 6.04097 9.7456 6.16912 9.92276 6.2475C10.0999 6.32588 10.296 6.35112 10.4873 6.32014C10.6785 6.28916 10.8566 6.20331 11 6.07301C11.1203 6.18243 11.2656 6.26082 11.4232 6.30139C11.5807 6.34197 11.7458 6.34349 11.904 6.30583C12.0623 6.26817 12.209 6.19247 12.3314 6.08529C12.4538 5.97811 12.5481 5.84269 12.6064 5.69077C12.6646 5.53885 12.6848 5.37503 12.6654 5.21351C12.6459 5.052 12.5874 4.89766 12.4948 4.76389C12.4022 4.63012 12.2784 4.52096 12.1341 4.44587C11.9898 4.37079 11.8293 4.33204 11.6666 4.33301ZM10.6666 10.333C10.4898 10.333 10.3202 10.4032 10.1952 10.5283C10.0702 10.6533 9.99996 10.8229 9.99996 10.9997V11.6663C9.99996 11.8432 9.92972 12.0127 9.8047 12.1377C9.67967 12.2628 9.5101 12.333 9.33329 12.333H2.66663C2.48981 12.333 2.32025 12.2628 2.19522 12.1377C2.0702 12.0127 1.99996 11.8432 1.99996 11.6663V8.99967H2.66663C2.84344 8.99967 3.01301 8.92944 3.13803 8.80441C3.26305 8.67939 3.33329 8.50982 3.33329 8.33301C3.33329 8.1562 3.26305 7.98663 3.13803 7.8616C3.01301 7.73658 2.84344 7.66634 2.66663 7.66634H1.99996V6.99967C1.99996 6.82286 2.0702 6.65329 2.19522 6.52827C2.32025 6.40325 2.48981 6.33301 2.66663 6.33301C2.84344 6.33301 3.01301 6.26277 3.13803 6.13775C3.26305 6.01272 3.33329 5.84315 3.33329 5.66634C3.33329 5.48953 3.26305 5.31996 3.13803 5.19494C3.01301 5.06991 2.84344 4.99967 2.66663 4.99967C2.13619 4.99967 1.62749 5.21039 1.25241 5.58546C0.87734 5.96053 0.666626 6.46924 0.666626 6.99967V11.6663C0.666626 12.1968 0.87734 12.7055 1.25241 13.0806C1.62749 13.4556 2.13619 13.6663 2.66663 13.6663H9.33329C9.86373 13.6663 10.3724 13.4556 10.7475 13.0806C11.1226 12.7055 11.3333 12.1968 11.3333 11.6663V10.9997C11.3333 10.8229 11.2631 10.6533 11.138 10.5283C11.013 10.4032 10.8434 10.333 10.6666 10.333ZM3.99996 10.9997H4.66663C4.84344 10.9997 5.01301 10.9294 5.13803 10.8044C5.26305 10.6794 5.33329 10.5098 5.33329 10.333C5.33329 10.1562 5.26305 9.98663 5.13803 9.8616C5.01301 9.73658 4.84344 9.66634 4.66663 9.66634H3.99996C3.82315 9.66634 3.65358 9.73658 3.52855 9.8616C3.40353 9.98663 3.33329 10.1562 3.33329 10.333C3.33329 10.5098 3.40353 10.6794 3.52855 10.8044C3.65358 10.9294 3.82315 10.9997 3.99996 10.9997Z" fill="black"/>
</svg>
