<svg width="14" height="12" viewBox="0 0 14 12" fill="none" xmlns="http://www.w3.org/2000/svg">
<path d="M5.66668 5.99999C4.93334 5.99999 4.30557 5.73888 3.78334 5.21666C3.26112 4.69443 3.00001 4.06666 3.00001 3.33332C3.00001 2.59999 3.26112 1.97221 3.78334 1.44999C4.30557 0.927768 4.93334 0.666656 5.66668 0.666656C6.40001 0.666656 7.02779 0.927768 7.55001 1.44999C8.07223 1.97221 8.33334 2.59999 8.33334 3.33332C8.33334 4.06666 8.07223 4.69443 7.55001 5.21666C7.02779 5.73888 6.40001 5.99999 5.66668 5.99999ZM0.333344 9.99999V9.46666C0.333344 9.09999 0.427788 8.75555 0.616677 8.43332C0.805566 8.1111 1.06668 7.86666 1.40001 7.69999C2.04445 7.37777 2.71112 7.12488 3.40001 6.94132C4.0889 6.75777 4.79445 6.66621 5.51668 6.66666C5.70557 6.66666 5.86401 6.73332 5.99201 6.86666C6.12001 6.99999 6.18379 7.1611 6.18334 7.34999C6.1829 7.53888 6.1189 7.69732 5.99134 7.82532C5.86379 7.95332 5.70557 8.0171 5.51668 8.01666C4.89445 8.01666 4.29157 8.09443 3.70801 8.24999C3.12445 8.40555 2.55512 8.62221 2.00001 8.89999C1.8889 8.95555 1.80557 9.03332 1.75001 9.13332C1.69445 9.23332 1.66668 9.34443 1.66668 9.46666V9.99999H5.51668C5.70557 9.99999 5.86401 10.064 5.99201 10.192C6.12001 10.32 6.18379 10.4782 6.18334 10.6667C6.1829 10.8551 6.1189 11.0135 5.99134 11.142C5.86379 11.2704 5.70557 11.3342 5.51668 11.3333H1.66668C1.30001 11.3333 0.986232 11.2029 0.725344 10.942C0.464455 10.6811 0.333788 10.3671 0.333344 9.99999ZM9.56668 11.4667L9.46668 11C9.33334 10.9444 9.20845 10.8862 9.09201 10.8253C8.97557 10.7644 8.85601 10.6893 8.73334 10.6L8.25001 10.75C8.10557 10.7944 7.96401 10.7889 7.82534 10.7333C7.68668 10.6778 7.57823 10.5889 7.50001 10.4667L7.36668 10.2333C7.2889 10.1 7.26112 9.95555 7.28334 9.79999C7.30557 9.64443 7.37779 9.51666 7.50001 9.41666L7.86668 9.09999C7.84445 8.94443 7.83334 8.79999 7.83334 8.66666C7.83334 8.53332 7.84445 8.38888 7.86668 8.23332L7.50001 7.91666C7.37779 7.81666 7.30557 7.69155 7.28334 7.54132C7.26112 7.3911 7.2889 7.24955 7.36668 7.11666L7.51668 6.86666C7.59445 6.74443 7.70001 6.65555 7.83334 6.59999C7.96668 6.54443 8.10557 6.53888 8.25001 6.58332L8.73334 6.73332C8.85557 6.64443 8.97512 6.56932 9.09201 6.50799C9.2089 6.44666 9.33379 6.38843 9.46668 6.33332L9.56668 5.84999C9.60001 5.69443 9.67512 5.56955 9.79201 5.47532C9.9089 5.3811 10.0449 5.33377 10.2 5.33332H10.4667C10.6222 5.33332 10.7585 5.38332 10.8753 5.48332C10.9922 5.58332 11.0671 5.7111 11.1 5.86666L11.2 6.33332C11.3333 6.38888 11.4582 6.44999 11.5747 6.51666C11.6911 6.58332 11.8107 6.66666 11.9333 6.76666L12.3833 6.61666C12.5389 6.5611 12.6889 6.5611 12.8333 6.61666C12.9778 6.67221 13.0889 6.76666 13.1667 6.89999L13.3 7.13332C13.3778 7.26666 13.4056 7.4111 13.3833 7.56666C13.3611 7.72221 13.2889 7.84999 13.1667 7.94999L12.8 8.26666C12.8222 8.39999 12.8333 8.53888 12.8333 8.68332C12.8333 8.82777 12.8222 8.96666 12.8 9.09999L13.1667 9.41666C13.2889 9.51666 13.3611 9.64177 13.3833 9.79199C13.4056 9.94221 13.3778 10.0838 13.3 10.2167L13.15 10.4667C13.0722 10.5889 12.9667 10.6778 12.8333 10.7333C12.7 10.7889 12.5611 10.7944 12.4167 10.75L11.9333 10.6C11.8111 10.6889 11.6916 10.7638 11.5747 10.8247C11.4578 10.8855 11.3329 10.944 11.2 11L11.1 11.4833C11.0667 11.6389 10.9918 11.764 10.8753 11.8587C10.7589 11.9533 10.6227 12.0004 10.4667 12H10.2C10.0445 12 9.90845 11.95 9.79201 11.85C9.67557 11.75 9.60046 11.6222 9.56668 11.4667ZM10.3333 9.99999C10.7 9.99999 11.014 9.86955 11.2753 9.60866C11.5367 9.34777 11.6671 9.03377 11.6667 8.66666C11.6662 8.29955 11.5358 7.98577 11.2753 7.72532C11.0149 7.46488 10.7009 7.33421 10.3333 7.33332C9.96579 7.33243 9.65201 7.4631 9.39201 7.72532C9.13201 7.98755 9.00134 8.30132 9.00001 8.66666C8.99868 9.03199 9.12934 9.34599 9.39201 9.60866C9.65468 9.87132 9.96846 10.0018 10.3333 9.99999ZM5.66668 4.66666C6.03334 4.66666 6.34734 4.53621 6.60868 4.27532C6.87001 4.01443 7.00045 3.70043 7.00001 3.33332C6.99957 2.96621 6.86912 2.65243 6.60868 2.39199C6.34823 2.13155 6.03423 2.00088 5.66668 1.99999C5.29912 1.9991 4.98534 2.12977 4.72534 2.39199C4.46534 2.65421 4.33468 2.96799 4.33334 3.33332C4.33201 3.69866 4.46268 4.01266 4.72534 4.27532C4.98801 4.53799 5.30179 4.66843 5.66668 4.66666Z" fill="#FCFCFC"/>
</svg>
