<svg width="28" height="24" viewBox="0 0 28 24" fill="none" xmlns="http://www.w3.org/2000/svg">
<path d="M22.0013 16H19.3346V18.6667H22.0013M22.0013 10.6667H19.3346V13.3333H22.0013M24.668 21.3333H14.0013V18.6667H16.668V16H14.0013V13.3333H16.668V10.6667H14.0013V8H24.668M11.3346 5.33333H8.66797V2.66667H11.3346M11.3346 10.6667H8.66797V8H11.3346M11.3346 16H8.66797V13.3333H11.3346M11.3346 21.3333H8.66797V18.6667H11.3346M6.0013 5.33333H3.33464V2.66667H6.0013M6.0013 10.6667H3.33464V8H6.0013M6.0013 16H3.33464V13.3333H6.0013M6.0013 21.3333H3.33464V18.6667H6.0013M14.0013 5.33333V0H0.667969V24H27.3346V5.33333H14.0013Z" fill="black"/>
</svg>
